<?xml version="1.0" encoding="UTF-8"?>
<svg xmlns="http://www.w3.org/2000/svg" xmlns:xlink="http://www.w3.org/1999/xlink" viewBox="0 0 24 24" width="24px" height="24px">
<g id="surface124372114">
<path style=" stroke:none;fill-rule:nonzero;fill:rgb(100%,100%,100%);fill-opacity:1;" d="M 2.945312 21.238281 C 2.84375 21.238281 2.761719 21.15625 2.761719 21.054688 L 2.761719 2.945312 C 2.761719 2.84375 2.84375 2.761719 2.945312 2.761719 L 21.054688 2.761719 C 21.15625 2.761719 21.238281 2.84375 21.238281 2.945312 L 21.238281 21.054688 C 21.238281 21.15625 21.15625 21.238281 21.054688 21.238281 Z M 2.945312 21.238281 "/>
<path style=" stroke:none;fill-rule:nonzero;fill:rgb(0%,0%,0%);fill-opacity:1;" d="M 4.898438 3.199219 C 4.175781 3.199219 3.601562 3.585938 3.332031 4.25 C 3.246094 4.457031 3.203125 4.671875 3.203125 4.898438 C 3.199219 5.644531 3.679688 6.246094 3.96875 6.609375 C 4.019531 6.671875 4.066406 6.730469 4.113281 6.796875 L 4.242188 6.96875 C 4.371094 7.136719 4.519531 7.328125 4.5625 7.425781 C 4.578125 7.46875 4.597656 7.546875 4.625 7.644531 C 4.753906 8.097656 4.988281 8.9375 5.359375 9.574219 C 5.511719 9.832031 5.722656 10.15625 5.875 10.382812 C 5.773438 10.894531 5.601562 11.832031 5.601562 12.398438 C 5.601562 13.398438 5.808594 14.203125 6.257812 14.9375 C 6.425781 15.199219 6.9375 16 7.800781 16 C 8.105469 16 8.617188 15.878906 8.753906 15.121094 C 9.367188 15.910156 10.398438 16.898438 12 17.601562 C 12 17.601562 9 14.101562 8.472656 11.917969 C 8.472656 11.917969 7.898438 12.5 7.414062 13.6875 C 7.265625 13.320312 7.199219 12.90625 7.199219 12.398438 C 7.199219 11.898438 7.421875 10.777344 7.507812 10.386719 L 7.582031 10.046875 L 7.382812 9.761719 C 7.382812 9.757812 6.976562 9.175781 6.742188 8.769531 C 6.472656 8.308594 6.273438 7.597656 6.167969 7.214844 C 6.117188 7.027344 6.074219 6.894531 6.039062 6.800781 C 5.898438 6.5 5.691406 6.230469 5.511719 5.996094 L 5.414062 5.863281 C 5.363281 5.792969 5.296875 5.707031 5.21875 5.613281 C 5.074219 5.429688 4.800781 5.085938 4.808594 4.867188 L 4.898438 4.804688 L 4.898438 4.800781 C 5.535156 4.800781 6.355469 5.25 6.664062 5.421875 C 6.765625 5.476562 6.839844 5.515625 6.878906 5.53125 L 7.015625 5.59375 L 7.289062 5.601562 C 7.648438 5.609375 8.734375 5.636719 9.503906 5.945312 C 10.902344 6.503906 11.679688 7.0625 12.464844 8.085938 C 14.324219 10.503906 15.011719 13.636719 15.015625 13.667969 L 15.117188 14.117188 L 15.554688 14.261719 C 15.570312 14.265625 16.792969 14.675781 17.9375 15.746094 C 16.5 16.101562 16 16.800781 16 16.800781 C 16 16.800781 16.382812 17.542969 18.199219 18.699219 C 19.300781 19.398438 19.898438 19.898438 20.800781 20.800781 C 20.800781 20.800781 19.902344 18.800781 18.644531 17.207031 C 19.601562 16.898438 20.777344 16.742188 20.777344 16.742188 L 20.046875 15.730469 C 18.851562 14.070312 17.242188 13.230469 16.476562 12.90625 C 16.210938 11.890625 15.410156 9.292969 13.734375 7.113281 C 12.773438 5.867188 11.753906 5.121094 10.097656 4.457031 C 9.117188 4.0625 7.933594 4.015625 7.410156 4.003906 C 6.949219 3.75 5.925781 3.199219 4.898438 3.199219 Z M 8.148438 6.398438 C 8.148438 6.398438 7.800781 6.398438 7.398438 6.5 L 8.5 8 C 8.800781 7.601562 8.800781 7.132812 8.800781 7.132812 C 8.800781 7.132812 8.601562 6.601562 8.148438 6.398438 Z M 8.148438 6.398438 "/>
</g>
</svg>
