<?xml version="1.0" encoding="UTF-8"?>
<svg xmlns="http://www.w3.org/2000/svg" xmlns:xlink="http://www.w3.org/1999/xlink" viewBox="0 0 48 48" width="48px" height="48px">
<g id="surface124311987">
<path style=" stroke:none;fill-rule:nonzero;fill:rgb(100%,100%,100%);fill-opacity:1;" d="M 24 45.601562 C 12.070312 45.601562 2.398438 35.929688 2.398438 24 C 2.398438 12.070312 12.070312 2.398438 24 2.398438 C 35.929688 2.398438 45.601562 12.070312 45.601562 24 C 45.601562 35.929688 35.929688 45.601562 24 45.601562 Z M 24 45.601562 "/>
<path style=" stroke:none;fill-rule:nonzero;fill:rgb(54.509807%,76.47059%,29.019609%);fill-opacity:1;" d="M 41.183594 23.664062 C 41.242188 20 40.417969 15.644531 38.699219 10.53125 L 37.351562 6.519531 L 35.519531 10.332031 C 35.421875 10.539062 35.308594 10.738281 35.191406 10.933594 C 32.183594 8.351562 28.277344 6.777344 24 6.777344 C 14.5 6.777344 6.800781 14.480469 6.800781 23.980469 C 6.800781 33.480469 14.5 41.179688 24 41.179688 C 33.5 41.179688 41.199219 33.480469 41.199219 23.980469 C 41.199219 23.875 41.1875 23.769531 41.183594 23.664062 Z M 41.183594 23.664062 "/>
<path style=" stroke:none;fill-rule:nonzero;fill:rgb(100%,100%,100%);fill-opacity:1;" d="M 37.230469 31.339844 C 34.546875 35.039062 29.792969 35.238281 25.316406 35.160156 L 17.816406 35.160156 C 21.625 33.789062 23.890625 33.464844 26.207031 32.234375 C 30.566406 29.941406 34.875 24.929688 35.769531 19.710938 C 34.109375 24.730469 29.082031 29.042969 24.496094 30.796875 C 21.355469 31.996094 15.683594 33.15625 15.683594 33.15625 L 15.453125 33.03125 C 11.59375 31.089844 11.476562 22.441406 18.496094 19.652344 C 21.570312 18.425781 24.511719 19.101562 27.832031 18.28125 C 31.375 17.410156 35.476562 14.664062 37.144531 11.078125 C 39.011719 16.8125 41.261719 25.789062 37.230469 31.339844 Z M 16.835938 36.402344 C 16.59375 36.703125 16.222656 36.878906 15.835938 36.878906 C 15.125 36.878906 14.546875 36.296875 14.546875 35.589844 C 14.546875 34.882812 15.128906 34.300781 15.835938 34.300781 C 16.128906 34.300781 16.417969 34.402344 16.644531 34.589844 C 17.195312 35.035156 17.28125 35.851562 16.835938 36.402344 Z M 16.835938 36.402344 "/>
</g>
</svg>
