<?xml version="1.0" encoding="UTF-8"?><svg xmlns="http://www.w3.org/2000/svg" xmlns:xlink="http://www.w3.org/1999/xlink" height="206.3" preserveAspectRatio="xMidYMid meet" version="1.0" viewBox="0.0 0.0 272.0 206.3" width="272.0" zoomAndPan="magnify"><g id="change1_1"><path d="M167.397,45.8l-0.652,0.789h-0.03v0.037L136.279,83.45l30.937,19.569l30.811-19.567L167.397,45.8z M167.715,47.775l28.826,35.434l-28.826,18.308V47.775z M166.715,48.196v53.324l-28.942-18.308L166.715,48.196z" fill="#A7A9AC"/></g><g id="change2_1"><path d="M91.064,88.603l-0.583-0.18l-0.103,1.019l-0.055,0.037l0.045,0.067l-5.76,56.924L128,145.348l0.317-0.009 l17.582-39.894L91.064,88.603z M91.79,89.872l52.741,16.199l-16.634,37.743L91.79,89.872z M91.241,90.85l35.826,53.522l-41.35,1.068 L91.241,90.85z" fill="#D1D3D4"/></g><g id="change3_1"><path d="M219.511,16.417l-0.877,0.527l-0.003-0.001l-0.001,0.003l-34.692,20.837l19.253,24.424l30.215-6.967 L219.511,16.417z M219.169,18.426l12.918,36.091l-27.924,6.438L219.169,18.426z M218.108,18.426l-14.89,42.199l-17.791-22.57 L218.108,18.426z" fill="#808285"/></g><g id="change4_1"><path d="M244.572,0l-9.557,30.046l23.216,4.311l13.723-19.13L244.572,0z M245.694,1.768l24.794,13.788 l-12.353,17.219L245.694,1.768z M244.863,2.382l12.344,30.767l-20.896-3.879L244.863,2.382z" fill="#6D6E71"/></g><g id="change5_1"><path d="M51.577,117.516l-0.695,0.75l-0.133-0.008l-0.009,0.16L0,173.182l46.01,32.889l0.258,0.184l49.512-27.646 L51.577,117.516z M51.688,119.376l42.623,58.908l-47.459,26.5L51.688,119.376z M50.652,119.985l-4.799,84.744l-44.348-31.7 L50.652,119.985z" fill="#FFF"/></g></svg>