<?xml version="1.0" encoding="UTF-8"?><svg xmlns="http://www.w3.org/2000/svg" xmlns:xlink="http://www.w3.org/1999/xlink" height="52.2" preserveAspectRatio="xMidYMid meet" version="1.0" viewBox="-0.3 0.0 252.1 52.2" width="252.1" zoomAndPan="magnify"><linearGradient gradientUnits="userSpaceOnUse" id="a" x1="0" x2="251.864" xlink:actuate="onLoad" xlink:show="other" xlink:type="simple" xmlns:xlink="http://www.w3.org/1999/xlink" y1="26.068" y2="26.068"><stop offset="0" stop-color="#bff0cf"/><stop offset="1" stop-color="#6fd6ff"/></linearGradient><path d="M15.26,22.62c0.3-0.59,0.47-1.22,0.23-1.74c0.33-0.12,0.66-0.24,0.99-0.35 c-0.11,0.14-0.34,0.89,0.25,0.74c0.66-0.46-0.87-0.61,0.5-0.99c0.23,0.32-0.34,0.47,0,0.82c0.83-0.23,0.57-0.7,1.05-1 c0.67,0.15,1.31-0.26,1.45-0.65c0.42,0.07,0.95,0,1.54-0.13c0.59-0.12,1.23-0.29,1.86-0.45c0.47,0.67-1.51,0.72-1.82,1.21 c0.49,0.18,1.76-0.48,2.34-0.39c0.19-0.09,0.2-0.22,0.46-0.3c-0.19-0.25-0.65-0.21-0.73-0.59c0.51,0.4,1.9-0.39,0.91-0.6 c0.4-0.36,1.47,0.24,2.22,0.14c0.31-0.19,0.38-0.45,0.33-0.74c0.22,0.02,0.45,0.05,0.8-0.06c0.37,0.61-0.53,0.02-0.42,0.44 c0.87,0.19,1.67-0.42,2.34-0.32c-0.11,0.67-0.77,0.17-1.51,0.41c-0.93,0.51-0.17,0.63-0.75,1.18c-1.39,0.27-3.76,0.68-6.12,1.23 C18.86,21.08,16.52,21.75,15.26,22.62z M18.03,21.82c-0.77,0.36-1.19,0.27-1.78,0.44c0.08,0.2,0,0.37-0.09,0.53 C16.98,22.19,17.91,22.38,18.03,21.82z M28.07,19.04c0.62-0.1,0.47-0.42,1.21-0.49c0.08,0.17,0.17,0.33,0.58,0.16 C29.86,17.98,27.81,18.47,28.07,19.04z M35.31,13.76c-0.59,0.21-0.03-0.73-0.87-0.27c0.38,0.49-1.11,0.41-0.87,0.86 C34.16,13.85,34.91,14.26,35.31,13.76z M54.75,4.4c1.31-0.38,1.12-0.04,2.34-0.23c-0.4-0.48-1.3-0.54-2.21-0.58 C55.95,4.13,55.24,3.64,54.75,4.4z M36.83,13.39c0.91-0.16,1.78-0.15,2.32-0.37C38.84,12.82,37.22,12.91,36.83,13.39z M51.38,4.83 c-0.56-0.17-0.33,0.07-1.03,0.19c-0.09-0.16-0.33-0.18-0.57-0.21c0.04,0.2,0.08,0.41,0.11,0.61C50.6,4.97,51.19,5.38,51.38,4.83z M11.04,23.33c0.65-0.39,0.72-0.03,1.29-0.31c0.01-0.32-0.67-0.76,0.22-0.91c0.06,0.21,0.27,0.54,0.36,0.2 c-0.03-0.39-0.57-0.15-0.52-0.64c-0.33,0.35-0.58,0.78-1.32,0.98C11.85,22.5,10.57,23.09,11.04,23.33z M5.51,29.82 c0.46,0.86,0.98-0.5,1.54-0.33C6.67,28.91,6.17,29.91,5.51,29.82z M11.97,26.49c-0.08-0.48-0.9,0.01-1.37,0.04 c0.09,0.2,0.01,0.37-0.07,0.53C11.01,26.87,11.49,26.68,11.97,26.49z M3.04,26.81c0.38,0.32-0.18,0.52,0.07,0.82 c0.69-0.49,0.66-0.24,1.15-0.67C4.18,26.46,3.47,26.83,3.04,26.81z M6.27,24.23c0.76,0.05,2.37-1.01,3.08-0.89 c0.05,0.33-0.87,0.5-0.81,0.83c0.57-0.23,1.15-0.46,1.72-0.69c-0.41-0.31-0.49-0.5-0.4-1.02c-0.65,0.4-0.72,0.05-1.29,0.35 c0.06,1.24-2.62,1.1-3.09,0.9C5.47,24.23,6.4,23.54,6.27,24.23z M1.1,27.67c0.29,0.35-1.36,0.51-1.07,0.86 c0.58-0.2,1.92-0.31,2.23-0.86C1.44,28.28,1.92,27.04,1.1,27.67z M9.6,25.42c0.67-0.65-1.41-0.2-1.58,0.29 c0.39-0.06,1.19-0.67,1.28-0.34c-0.35,0.17-0.92,0.31-0.92,0.53c1.02-0.28,2.92-0.6,3.71-1.3C11.4,24.36,10.45,24.96,9.6,25.42z M67,3.95c-0.4-0.15-2.07-0.02-2.02,0.45C65.96,4.08,66.82,4.61,67,3.95z M7.76,29.18c1.07-0.34,2.35-0.37,1.91-0.77 C9.67,28.84,7.96,28.49,7.76,29.18z M8.37,27.25c0.66-0.26,1.37,0.16,1.45-0.58C9.6,26.63,8.34,26.89,8.37,27.25z M28.84,30.84 c-1.51,0.37-4.47,0.86-4.59,0.92c-1.04,0.31,0.11,0.17,1.53-0.06C27.21,31.48,28.88,31.12,28.84,30.84z M29.07,38.27 c0.88-0.35,2.23,0.1,2.3-0.53C30.61,37.72,29.81,37.78,29.07,38.27z M22.49,39.42c0.21,0.53,1.54,0.66,1.45-0.15 C23.63,39.1,22.93,39.42,22.49,39.42z M27.19,32.97c0.07,0.2,0,0.36-0.09,0.52c0.59,0.18,0.63-0.4,1.35-0.57 c0.09,0.43,0.77,0.18,1.11,0.32c0.03-0.43,0.56-0.44,1.07-0.46c0.51-0.01,1-0.02,0.94-0.45C29.99,32.18,28.75,32.87,27.19,32.97z M24.62,30.49c0.95,0.19,1.58-0.49,2.31-0.05c0.35-0.36,0.6-1.16,1.52-0.95C27.49,28.85,25.82,30.34,24.62,30.49z M30.43,29.24 c-0.73-0.36-0.69-0.52-0.78-0.92c-0.14,0.32-0.91,0.48-0.5,0.96C29.63,29.21,29.84,29.42,30.43,29.24z M40.17,38.77 c0.6-0.15,1.36-0.25,1.29-0.64C41.01,38.33,39.82,38.28,40.17,38.77z M39.68,39.7c0.65-0.36,1.86,0.15,1.77-0.6 C41.17,38.87,39.51,39.31,39.68,39.7z M28.67,30.24c-0.17-0.69,1.08-0.23,1.65-0.49c-0.36-0.47-1.59,0.08-2.49,0.25 C27.79,30.46,28.4,30.15,28.67,30.24z M37.8,36.14c0.04,0.43-0.9,0.51-0.99,0.89c0.53-0.13,1.07-0.27,1.61-0.4 C38.39,36.27,38.22,36.08,37.8,36.14z M36.68,38.37c0.22-0.76,1.89-0.32,2.39-1.09c-1.06,0.44-2.3,0.07-2.96,0.77 C36.48,37.94,36.34,38.42,36.68,38.37z M32.15,32.65c0.74,0.19,1.64-0.4,1.79-0.81C33.36,31.69,32.27,32.23,32.15,32.65z M23.07,30.51c0.46-0.11,0.47-0.34,0.89-0.46c-0.02-0.28-0.73-0.73-0.85-0.21c0.15-0.04,0.29-0.07,0.28,0.07 C23.45,30.15,22.83,30.23,23.07,30.51z M8.57,45.04c0.64,0.24,1.67-0.09,2.81-0.58C10.68,43.95,9.64,45.11,8.57,45.04z M11.4,36.47 c-0.6,0.13-1.16,0.37-1.4,0.59c0.36-0.06,0.88-0.14,1.43-0.23c0.54-0.09,1.09-0.23,1.46-0.46C12.6,36.29,11.99,36.34,11.4,36.47z M13.12,28.05c-0.38,0.06-1.16,0.66-1.25,0.33c0.42-0.18,1.2-0.71,0.49-0.87c-0.48,0.67-1.56,0-1.56,0.96 c1.29-0.5,0.5,0.48,0.34,0.87c0.95-0.2,0.53-0.63,1.31-0.86l0.22,0.58c0.47-0.42,1.04,0.02,0.95-0.37 C13.13,28.9,13.34,28.21,13.12,28.05z M24.81,31.09c-0.78-0.09-1.87,0.2-2.77,0.26C22.74,31.97,23.8,31.53,24.81,31.09z M9.91,31.68 c-0.51-0.1-1.51,0.44-1.57,0.83c0.27,0.04,0.6-0.08,0.89-0.26C9.53,32.08,9.79,31.86,9.91,31.68z M4.92,46.61 c1.03-0.2,2.23-0.69,3.36-1.09C7.54,45.41,5.64,45.91,4.92,46.61z M15.33,31.73c-0.01,0.13-0.13,0.24-0.41,0.32 c-0.06-0.15,0.12-0.24,0.13-0.38c-0.16,0-1.04-0.02-0.94,0.36c0.57-0.17,0.69,0.24,1.16,0.23C15.05,32.09,16.03,31.56,15.33,31.73z M19.57,31.02c-0.04,0.54,0.85-0.06,0.91,0.35c-0.28,0.07-0.62-0.09-0.71,0.24c0.65,0.1,0.73,0.08,1.17-0.39 C20.77,30.81,20.32,30.72,19.57,31.02z M5.41,26.29c-0.17,0.25-0.36,0.5-0.54,0.75c-0.03-0.08-0.27-0.08-0.24,0.11 C5.32,27.38,6.21,26.2,5.41,26.29z M18.81,34.78c0.39,0.29,0.95,0.34,1.81,0.01C20.55,34.1,19.59,34.56,18.81,34.78z M18.07,32.72 c-0.1,0.19-1.03,0.44-1.23,0.95C17.48,33.48,18.86,32.77,18.07,32.72z M15.73,35.58c0.19-0.04,0.45-0.17,0.51-0.03 c-0.17,0.09-0.45,0.18-0.4,0.32c0.69-0.13,0.52-0.43,1.09-0.57c-0.18,0.3-0.11,0.45,0.39,0.35c0.22-0.53,0.64-0.48,1.14-0.42 C18.23,34.61,16.22,35.13,15.73,35.58z M212.22,8.65c-1.38-0.33-1.92-0.5-3.03-0.28C210.33,8.6,211.43,8.76,212.22,8.65z M188.27,3.43c1.2-0.04,4.31-0.17,3.7-0.65c-0.82,0.24-2.22-0.19-3.47-0.53c-1.24-0.32-2.33-0.52-2.48,0.11 c0.35,0.04,1.19,0.44,2.37,0.45C188.65,3.11,188.62,3.27,188.27,3.43z M198.32,5.21c-0.72-0.07-1.65-0.33-2.16-0.2 c0.46,0.24,0.9,0.48,1.49,0.68c0.09-0.1,0.08-0.3,0.34-0.24c-0.02,0.08,0.17,0.22,0.26,0.06C197.94,5.41,198.13,5.31,198.32,5.21z M194.38,1.72c0.6,0.07,1.2,0.13,1.8,0.18c2.4,0.19,4.82,0.21,7.32,0.63c-4.91-0.89-10.33-1.96-14.64-2 c1.26,0.45,2.49,0.75,3.71,0.96C193.17,1.58,193.78,1.66,194.38,1.72z M200.04,4.99c-0.45,0.13-1.17,0-1.46,0.29 c0.91-0.31,2.21,0.46,2.65,0.52C200.87,5.51,200.81,5.16,200.04,4.99z M173.61,2.38c-0.02-0.53-0.69-0.78-1.19-1.11 C171.98,1.7,172.24,2.31,173.61,2.38z M40.63,33.67c0.44-0.08,1.64,0.03,1.87-0.43c-1.09,0.49-0.84-0.4-1.35-0.49 C41.28,33.16,40.53,33.26,40.63,33.67z M169.15,3.99c0.21-0.67,0.14-0.5,0.39-1.05c-0.62-0.14-0.6,0.22-1.32,0.01 c0.4,0.58-0.46,0.49-0.65,1.03C168.35,4.17,168.54,3.91,169.15,3.99z M164.8,2.86c-0.31-0.23-2.02-0.52-2.34-0.23 C163.36,2.66,164.23,3.55,164.8,2.86z M173.32,0.6c-1.4-0.25-2.74,0.22-3.43-0.46c-0.01,0.1-0.03,0.21-0.04,0.31 c-0.16-0.01-0.31-0.01-0.28,0.12C171.04,0.74,172.49,0.93,173.32,0.6z M170,1.41c-0.68-0.47-1.72-0.18-2.13,0.07 c0.54,0.15,0.7,0.47,1.54,0.49C169.44,1.66,170.14,1.85,170,1.41z M167.91,5.57c-0.04-0.37,0.11-0.59,0.35-0.74 c-1.17-0.2-2.17-0.49-3.61-0.57c-0.32,0.15-0.35,0.51-0.35,0.9C165.99,5.3,166.51,5.6,167.91,5.57z M230.59,19.59 c0.91,0.39,0.66,0.92,1.16,1.36C232.17,20.43,231.22,19.15,230.59,19.59z M223.37,12.21c-0.03,0.08,0.14,0.25,0.25,0.1 c-0.48-0.58-1.41-0.45-1.7-0.13c0.5,0.14,0.5,0.37,0.97,0.52C223,12.33,222.58,12.06,223.37,12.21z M229.9,15.03 c0.33,0.88,1.88,2.24,1.63,3.1c0.74,0.03,0.8,0.54,1.31,0.4c-0.31-0.28-0.69-0.56-0.49-0.9c1.21,0.89,1.68,1.24,1.72,1.25 c0.04,0-0.34-0.36-0.89-0.85c-1.1-0.98-2.85-2.53-2.96-3.03C229.95,14.87,229.55,14.79,229.9,15.03z M243.63,28.26 c1.2,0.79,2.66,2.29,4.03,2.63C246.83,30.01,245.17,28.32,243.63,28.26z M237.97,22.85c0.26-0.6-1.07-1.09-1.92-1.61 C236.02,22.04,237.05,22.03,237.97,22.85z M229.78,15.32c-0.44-0.24-1.19-1.13-1.7-0.89C228.27,14.68,229.22,15.54,229.78,15.32z M223.13,11.29c1.48,0.78,2.74,2.35,4.55,2.65C226.54,13.1,224.48,11.64,223.13,11.29z M224.54,17.39c1.39,0.42,1.94,1.13,2.79,0.95 c-0.46-1.11-2.41-1.7-3.5-2.07c0.21-0.31,0.97,0.08,1.04-0.43c-1.14-0.4-0.89,0.15-1.28,0.33C224.18,16.53,224.5,16.94,224.54,17.39 z M223.67,15.19c0.28-0.3,1.59,0.71,1.68,0.16c-0.32-0.41-1.43-0.71-2.2-1.05C222.78,14.97,223.53,14.61,223.67,15.19z M223.03,13.09c0.79,0.32,1.6,0.08,2.08,0.66c-0.19-0.67,0.9,0.26,0.93-0.13c-1.35-0.04-1.54-1.06-2.23-1.06 c0.16,0.07,0.29,0.14,0.2,0.25C223.25,12.35,223.48,13.14,223.03,13.09z M90.76,10.73c0.7-0.2,0.67,0.16,1.27,0.03 c0.3-0.22,0.05-0.6-0.33-0.75C91.66,10.38,90.96,10.44,90.76,10.73z M97.01,4.19c0.79-1.06-2.59-0.58-3.86-0.28 C93.91,4.41,96.2,3.18,97.01,4.19z M100.53,6.55c0.01,0.83,1.84,0.06,1-0.23C101.34,6.79,101.16,6.52,100.53,6.55z M107.21,3.72 c-0.17-0.92-1.91-0.76-2.31,0C106.12,3.66,106.06,4.03,107.21,3.72z M99.52,6.64c1.16-0.01,0.84-0.77,1.71-0.92 c0.68,0.15,2.15,0.3,1.35,1c0.79,0.18,0.98-0.13,1.53,0.04c-0.81-1.12-2.29-1.21-3.69-1.6c-0.67,0.39,0.54,0.81-0.43,0.98 c-0.58-0.28-0.11-0.69,0.18-0.96c-0.77,0.27-1.44-0.34-1.77,0.15C98.9,5.67,99.76,5.75,99.52,6.64z M104.25,5.34 c0.2,0.02,0.31,0.11,0.28,0.29c0.8,0.01,0.79-0.39,0.7-0.84c-0.77,0.17-0.52-0.39-1.29-0.22C103.7,5.33,105.37,4.81,104.25,5.34z M90.67,4.63c-0.51-0.01,1.61-0.73,0.18-0.8c-0.06,0.47-1.17,0.42-1.46,0.77c0.25-0.02,0.51-0.05,0.76-0.07 C90.1,4.78,90.53,4.9,90.67,4.63z M78.38,2.19c0.08-0.26,0.78-0.22,0.43-0.68c-0.61,0.3-1.09,0.55-1.77,0.21 c0.19-0.06,0.5-0.06,0.49-0.21c-0.44,0.04-0.79,0.13-1,0.28C76.58,2.36,77.59,2.19,78.38,2.19z M89.64,9.59 c2.02-0.33,1.38,0.03,3.04,0.02c0.35-0.12,0.59-0.3,0.71-0.54c-0.89-0.17-1.32,0.34-2.02,0.04c1.65-0.38,2.84-0.49,4.01-0.39 c0.17-0.46-0.39-0.37-0.32-0.76c1.4,0.13,0.21-0.67,0.7-0.69c0.79-0.2,0.8,0.18,1.29,0.2c-0.13-0.66,1.14-0.61,1.17-1.2 c-1.32,0.2-1.93-0.51-2.89-1c0.22-0.19,0.93-0.13,0.72-0.53c-1.94-0.22-3.19,0.22-4.58,0.12c-0.33,0.56,0.2,0.97-0.13,1.27 c-1.26-0.02-1.4-0.88-2.09-0.58c0.23,0.39,0.88,0.44,1.1,0.83c-0.3,0.41-0.79-0.21-0.99,0.25c1.3,0.01,0.84,0.55,2.35,0.56 c-0.06-0.28,0.21-0.39,0.73-0.38c-0.12-0.35-0.02-0.6,0.18-0.8c-0.21-0.23-0.82-0.15-0.81-0.55c0.66,0,1.39-0.05,1.79,0.14 c-0.21,0.26,0.81,0.92-0.12,1.42c0.18,0.13,1.14-0.19,1.3,0.35c-1.45-0.04-2.78,0.55-3.76,0.52c-0.17,0.52,0.85,0.13,0.82,0.55 c-0.52,0.14-0.68,0.45-1.48,0.46c0.13-0.34,0.59-0.75,0.16-0.96c-0.56,0.13-1.25,0.43-1.76,0.18c-0.04,0.31,0.37,0.27,0.55,0.41 c-2.12,0.26-0.41,0.07,0.05,0.47c-0.7,0.29-1.31-0.29-1.5,0.16C88.36,9.35,89.63,8.98,89.64,9.59z M74.56,2.5 c-0.29-0.38,0.86-1.15,0.16-0.81c-0.25,0.33-0.94,0.45-1.19,0.78C74.01,2.37,74.11,2.57,74.56,2.5z M66.85,2.87 c0.61-0.27,2.17-0.88,1.66-1.17c-0.21,0.89-1.44-0.3-2.02,0.43C67.04,2.03,66.68,2.66,66.85,2.87z M162.04,1.49 c0.72-0.07,1.47-0.04,2.22-0.02c0.76,0.03,1.52,0.03,2.3-0.14c-0.04,0.2-0.36,0.18-0.32,0.44c0.6,0,0.97-0.17,1.12-0.5 c-1.33-0.34-3.39-1.14-4.12-1.23c0.43,0.24,0.47,0.67,0.97,0.87c-0.88,0.22-1.53-0.37-2.13,0.12 C162.48,1.11,162.23,1.39,162.04,1.49z M160.19,4.46c-0.72-0.04-0.81-0.52-0.46-0.67c-0.54,0.04-1.68-0.35-1.83-0.01 C158.77,3.93,158.67,4.9,160.19,4.46z M155.84,3.48c-1.38-0.3-3.09-0.24-4.4-0.29C152.96,3.63,154.39,3.71,155.84,3.48z M157.07,4.51c-0.09-0.5,0.82-0.3,0.59-0.9c-1.49,0.4-2.3,0.26-3.69,0.68C155,4.36,156.03,4.43,157.07,4.51z M161.12,0 c-0.37,0.34,0.01,0.29-0.34,0.75C161.74,0.99,161.9,0.09,161.12,0z M129.73,1.75c-0.7,0.09-2.05-0.16-2.32,0.19 C128.42,2.01,129.01,2.2,129.73,1.75z M117.39,2.54c-0.38-0.01-1.95-0.04-2.3,0.11C115.42,2.81,117.13,2.86,117.39,2.54z M114.35,3.15c-0.38-0.22-1.32-0.07-2.05-0.06C112.06,3.64,114.23,3.38,114.35,3.15z M145.91,5.26c-0.16-0.49-0.17-0.3,0.03-0.78 c-0.6,0.19-0.96-0.43-1.03-0.03c0.66,0.09,0.25,1.04-0.53,0.61C144.18,5.96,145.48,5.34,145.91,5.26z M147.53,3.46 c-0.26-0.01-0.34,0.26-0.01,0.31c0.27-0.19,0.28-0.56,0.55-0.75c-0.39,0.01-0.95-0.1-1.04,0.1C147.32,3.17,147.43,3.31,147.53,3.46z M218.2,43.14c0.8,0.51,0.94,0.49,1.6,0.36C218.89,43.09,218.74,42.73,218.2,43.14z M15.88,28.87c0.07,0,0.14-0.01,0.21-0.02 C16.03,28.85,15.96,28.85,15.88,28.87z M221.29,44.14c0.05,0.75,1.23,0.82,1.68,1.29C223.24,44.88,222.08,44.51,221.29,44.14z M83.44,24.54c0.02,0,0.04,0,0.05,0C83.49,24.53,83.46,24.53,83.44,24.54z M221.26,45.32c-0.6-0.41-1.63-1.22-2.1-0.92 C220.06,44.59,220.54,45.53,221.26,45.32z M220.07,50.62c0.72,0.4,0.9,1.56,1.72,1.51C221.17,51.77,220.46,50.19,220.07,50.62z M52.58,18.73c-0.06-0.26,0.12-0.43,0.41-0.55c0.64-0.1,0.46,0.54,1.1,0.44c0.1-0.58,0.45-1.06,1.02-1.44 c-0.83,0.2-1.1-0.08-1.57-0.2c0.74-0.24,0.78,0.14,1.52-0.1c0.09-0.5,0.12-0.33-0.13-0.77c-1.19,0.84-2.21,0.08-3.46,0.78 c1.35-0.09-0.84,0.76,0.17,0.92c-0.28-0.28,0.71-0.74,0.69-0.45c-0.22,0.72,0.39,1.06-0.88,0.8C50.89,18.68,51.66,19.01,52.58,18.73 z M248.24,51.23c-1.47,0-2.93-2.17-4.03-3.04c-1.09,0.04-1.32-0.29-2.58-0.86c-0.52,0.28,0.6,0.5,0.08,0.78 c-0.83-0.2-1.91-1.04-2.97-1.76c-1.09-0.69-2.15-1.25-2.88-0.96c-0.09,0.44,0.94,0.81,0.65,1.26c0.83,0.2,1.08,0.75,1.72,0.8 c0.39,0.55-0.71,0.48-1.34-0.04c0.39,0.82,1.87,1.64,2.91,2.47c-0.2,0.04-0.39,0.09-0.16,0.27c-0.36,0.04-0.88-0.26-1.24-0.21 c-0.51-0.59-1.47-1.13-1.96-0.81c-1.08-1.02-2.68-1.79-4.2-2.46c-1.55-0.63-3-1.18-3.8-1.87c-0.41,0.16-0.8,0.32-1.25,0.41 c-0.59-0.54,0.6-0.13,0.56-0.6c-1.68-1.06-3.45-1.5-5.02-1.75c-1.59-0.21-2.98-0.22-3.95-0.49c-0.41-0.47-0.74-0.91-2.17-1.42 c0.33,0.51,0.28,1.07,1.14,1.48c-0.13,0.16-0.48-0.04-0.42-0.19c-0.34,0.11-0.71,0.19-1.1,0.23c0.43-0.35-1.49-1.26-2.46-1.32 c-0.11-0.38-0.63-0.73-1.27-1.03c-0.65-0.28-1.43-0.52-2.03-0.72c0.34,0.69,1.15,1.16,2.11,1.57c0.96,0.42,2.08,0.75,3.07,1.1 c-1.08,0,1.46,1.83,2.1,1.54c-0.35,0.55,0.57,0.12,0.72,0.65c-0.64,0.08-1.21,0.01-1.74-0.14c-0.54-0.15-1.05-0.37-1.54-0.62 c-0.99-0.49-1.96-1.07-3.1-1.19c-0.38-0.84-1.6-1.28-2.81-1.61c-1.22-0.32-2.44-0.53-2.91-0.79c0,0.59,0.79,0.19,0.93,0.82 c0.24-0.04,0.42-0.15,0.59-0.28c0.72,0.49,1.4,0.98,2.16,1.45c-0.52,0.68-3.82-0.73-3.71-1.17c-1.15,0.12-2.25,0.09-3.38-0.04 c-0.57-0.06-1.14-0.16-1.74-0.25c-0.6-0.09-1.23-0.2-1.89-0.32c0.98,1,1.3,2.17,2.07,3.25c-0.79-0.54-1.93-2.07-2.33-3.17 c-0.48-0.05-1.38-0.62-1.57-0.31c-0.54-0.36,0.6-0.33,0.83-0.4c-0.52-0.41-1.13-0.46-1.79-0.37c-0.27-0.18,0.22-0.37-0.01-0.81 c-0.52,0.14-0.4-0.23-0.93-0.09c-0.01,0.19,0.37,0.24,0.62,0.33c-0.32,0.83-2.45-0.47-2.54,0.61c-2.31,0.02-3.93-1.18-5.78-0.33 c-0.77-0.52-1.45-0.36-2.25-0.37c0.05,0.21,0.22,0.37,0.6,0.45c-0.93,0.42-1.95-0.41-2.99-0.16c0.2,0.52-0.14,0.61-0.82,0.62 c0.22-0.08,0.22-0.39,0.54-0.36c-0.71-0.79-2.24,0.05-3.26,0.13c-0.34-0.23,0.66-0.36,0.18-0.92c-0.61,0.28-0.62,0.03-1.59-0.14 c0.51-0.23-0.04-0.32-0.11-0.65c-1.06,0.54-0.45-0.12-1.82-0.18c0.32-0.15,0.73-0.17,0.33-0.57c-1.01,0.42-1.15-0.44-2.08-0.04 c0.67-0.76-0.25-0.21-0.07-0.96c-0.5,0.25-2.1-0.38-1.72-0.91c-0.55-0.26-1.35,0.12-0.75,0.35c-0.67,0.23-1.01-0.93-1.3-0.67 c-0.67-0.19,0.27-0.3,0.09-0.62c0.56,0.01,0.46,0.35,1.12,0.33c-0.1-0.14-0.2-0.29-0.16-0.5c-0.71,0.02-1.75-0.47-1.83-0.26 c-0.67-0.5,0.74-0.6,0.85-0.99c-0.15-0.17-0.39-0.29-0.65-0.4c-0.68,0.15-0.46,1.1-1.53,0.89c-0.17-1.11-1.4,0.8-2.63,0.43 c-0.17-0.5,0.55-0.21,0.96-0.19c0.25-0.56-0.53-0.61-0.82-0.9c-0.23,0.14-0.86-0.05-0.75,0.39c-1-0.45-2.55-0.38-3.21-0.68 c0.2-0.26,0.42,0.03,0.69,0.08c-1.8-0.87,1.91-0.39,0.91-1.78c1.31,0.14,1.07-0.26,2.35,0.11c0.49,0.02,0.15-0.68,0.56-0.72 c0.64,0.06,1.21,0.13,0.66,0.41c0.61,0.19,0.49-0.26,0.76-0.37c-0.1-0.37-0.77-0.48-1.46-0.53c-0.69-0.04-1.39-0.01-1.55-0.17 c0.02,0.18-0.09,0.27-0.27,0.28c1.32,0.56-1.16,0.05-0.3,0.59c-0.81,0.07-2.31-0.77-3.45-1.02c0.79-0.59-0.95-0.2-0.17-0.64 c-1.62-0.22-2.24-0.15-2.77-1.04c-0.26,0.17-1.85,0.64-0.3,0.76c-0.84,0.5-1.18-0.51-1.89-0.17c-0.06-0.44,0.89-0.07,0.98-0.38 c-1.21-0.53-2.49,0.33-2.23,1.08c-0.57-0.35-0.82,0.35-1.65-0.12c-0.09,0.09-0.05,1.19-0.99,0.56c-0.04,0.22-0.07,0.44,0.21,0.48 c-0.39,0.49-0.56-0.36-1.17-0.24c0.15-0.31,0.39-0.3,0.72-0.11c-0.26-0.25-0.25-0.41,0.04-0.62c-0.56-0.04-0.71,0.21-1.43,0.06 c0.05-0.18-0.03-0.28-0.22-0.32c-0.29-0.41,1.13-0.32,0.27-0.61c0.52-0.34,1.29,0.46,2.11,0.46c0.64,0.16,0.5-0.27,0.97-0.25 c-0.49-0.32-1.07-0.35-1.65-0.27c0.03-0.43,1.15-0.29,1.43-0.06c0.27-0.55-1.06-0.21-0.9-0.69c-0.26,0.47-1.5,0.16-2.4,0.16 c1.2,0.61-1.33,0.18-1.91,0.06c-0.32,0.49,0.76,0.16,0.44,0.65c-0.32,0.14-0.89,0.1-0.97,0.42c-0.61-0.05-0.31-0.63-0.92-0.67 c0.05-0.18,0.44-0.11,0.72-0.12c0.04-0.28-0.28-0.34-0.21-0.64c-0.61,0.87-1.58-0.13-3.11,0.02c0.94-0.25,0.15-0.77-0.69-0.8 c-0.2,0.1,0.83,1.1-0.98,0.75l-0.01,0.31c0.14,0.38,1.47,0.02,1.66,0.36c0.36-0.06-0.09-0.2,0.02-0.47 c0.46,0.23,0.72,0.58,1.41,0.67c-0.18,0.14-0.44,0.22-0.73,0.29c0.05,0.28,0.39,0.36,0.94,0.35c0.43,0.19,0.1,0.16-0.33,0.13 c-0.42-0.02-0.94-0.05-0.88,0.14c-0.34-0.58-1.06-0.03-2.13-0.22c-0.12,0.48,0.49,0.52,1.17,0.5c-0.06,0.66-0.71,1.1-0.31,2.02 c-0.75-0.05-0.68-0.6-1.4-0.67c-0.15,0.27,0.13,0.62,0.44,1.11c-0.33,0.37-0.7-0.3-0.95,0.13c-0.71-0.17-0.39-0.99-1.63-0.83 c-0.35-0.56,0.81-0.08,0.72-0.45c-0.93-0.38-3.14-1.53-2.84-0.51c0.16,0.43-1.12-0.13-0.95,0.3c-0.74-0.21-0.12-0.32-0.47-0.79 c-0.76,0.47-0.99-0.29-1.9-0.18c0.86-0.27,2.08-0.28,2.86-0.59c1.35,0.79,2.76,0.09,4.04,0.23c0.12-0.33-0.33-0.31-0.7-0.33 c0.28-0.19,1.31-0.49,0.01-0.47c0.33-0.3,1.46-0.04,1.91-0.25c0-0.66-0.75-0.87-1.64-0.99c0.17,0.15,0.43,0.25,0.71,0.33 c-0.25,0.25-1.02,0.14-1.44,0.27c0.16-0.16,0.55-0.15,0.49-0.46c-0.65-0.37-1.28-0.28-2.15-0.19c0.34-0.24,0.83-0.39,1.45-0.45 c-0.29-0.42-2.26-0.4-2.64,0.28c-0.72-0.01-1.44-0.02-2.16-0.03c-0.07-0.36,0.69-0.16,0.72-0.46c-0.02-0.3-0.79-0.12-0.72-0.48 c-0.29,0.29-1.8,0.6-1.69-0.15c-0.89,0.08-0.59,0.93-1.68,0.47c-0.15,0.5,0.87,0.21,0.24,0.62c-0.72-0.71-1.99-1.13-3.37-0.6 c-0.09-0.95,3.01,0.04,3.13-1.12c2.54,1.35,6.66-0.01,9.4,0.56c0.85-0.02-0.84-0.45,0.01-0.47c0.59,0.16,0.87,0.5,1.92,0.37 c-1.46-0.75-3.17-0.7-4.33-0.42c-0.77-0.36-3.01-0.85-3.62-0.36c-0.65-0.2-0.6-0.6-1.45-0.31c0.64-0.88,1.71,0.1,2.66-0.29 c-0.21-0.46-0.36-0.18-0.97-0.17c-0.02-0.26,0.41-0.67,0-0.31c-0.28-0.25,0.65-0.55,0.49-0.93c-0.22-0.33-0.71-0.49-1.46-0.48 c-0.29,0.03-0.21,0.28-0.25,0.47c-0.61-0.08-1-0.29-1.46-0.46c-0.56-0.05-0.27,0.45-0.73,0.47c0.22,0.46,0.36-0.36,0.98-0.16 c-0.26,0.87-2.24,1.22-1.45,1.88c-0.59,0.18-1.44-0.85-2.91-0.6c0.04,0.29,0.82,0.08,0.97,0.3c-1.17,0.11-1.36,1-1.7,0.03 c-0.12,0.36-0.17,0.26-0.97,0.02c0-0.15,0.29-0.13,0.48-0.17c-0.55-0.37-1.13-0.23-1.7,0.03c0.71,0.52,0,0.95,0.52,1.55 c-3.83,1.58-7.76,0.56-13.27,1.13c0.28,0.39,1.01,0.46,1.96,0.37c-0.75,0.69-2.49,0.08-3.13,0.49c-0.66-0.1,0.53-0.38,0.45-0.65 c0.16-0.26-1.16-0.18-0.97,0.06c0.62,0.39-0.34,0.35-0.25-0.14c-1.08,0.16-1.77,0.22-1.65,0.73c-0.32,0.02-0.64,0.04-0.97,0.06 c0.79-0.84-1.93-0.25-1.78-1.13c0.49-0.19,0.94-0.39,1.42-0.57c-0.67-0.16-3.35,0.08-4.88,0.05c0.01,0,0.27-0.18,0.54-0.42 c0.27-0.24,0.55-0.54,0.6-0.76c-0.38-0.24-0.5,0.24-0.28-0.45l-0.49,0.04c-0.96,0.9-0.65,1.6-2.27,2.22 c0.15,0.21,0.41,0.35,0.77,0.4c0.39-0.25,1.55-0.06,1.42-0.58c0.69,0.58-1.29,0.98-2.35,1.13c0.96,0.52-0.81,0.44-1.16,0.73 c0.4,0.36,1.13,0.45,1.76,0.63c-1.21,0.6-2.08,0.68-3.06,1.2c-0.46,0.1-0.42-0.68,0.2-0.49c-0.5-0.4-1.24,0.32-1.92,0.32 c-0.3-0.38-0.93-0.49-1.07-0.99c0.76,0.16,0.94-0.15,1.47,0.02c-0.06,0.22-0.59,0.18-0.95,0.25c0.41,0.28,1.69-0.1,2.21,0.12 c0.68-0.06-0.61-0.37,0.45-0.35c0.01-0.28-0.33-0.3-0.3-0.6c-2.63,0.41-3.97,0.65-6.06,0.57c-0.32,0.08-0.16,0.41-0.18,0.64 c-0.3-0.21-0.74-0.31-0.8-0.71c-1.15,0.29-1.66,0.11-2.38,0.72c1.04,0.63,1.71,0.45,3.7,0.25c-0.24,0.37-0.92,0.51-1.13,0.89 c-0.77-0.27-1.65-0.2-2.23-0.24c0.33-0.85-1.83-0.84-0.63-1.35c-0.1-0.2-0.62-0.06-0.99-0.05c0.37-0.16,0.31-0.53,0.92-0.57 c-0.23-0.21-0.65-0.27-1.25-0.18c0.07-0.31,0.66-0.36,0.4-0.83c0.41-0.04,0.81-0.09,1.22-0.13c-0.11,0.33-0.7,0.38-0.18,0.65 c0.7,0.05,0.61-0.29,1.2-0.29c-0.06-0.18-0.45-0.08-0.74-0.08c0.45-0.38,1.98-0.79,2.65-0.59c-0.55-0.52,0.2-0.49,0.91-0.72 c-0.07,0.21-0.41,0.29-0.44,0.51c0.58,0.29,1.95-0.28,2.15-0.68c-1.49-0.05-1.49,0.18-3.41,0.33c-1.24-0.39-1.29-1.53-2.62-1.45 c-0.36-0.58,0.77-0.93,0.95-0.41c0.65-0.07,0.48-0.55,1.17-0.6c-0.63-0.51-2.81,0.21-3.72-0.07c0.12-0.38,1.27-0.25,0.9-0.88 c-1.26,0.05,0.05,0.55-0.93,0.57c-0.51-0.69,2.46-1.17,1.55-1.73c0.57-0.06,1.15-0.12,1.72-0.18c-0.18,0.34,0.31,0.94,0.54,0.41 c0.57-0.05-0.05,0.43-0.46,0.36c0.74,0.38,1.5,0.73,1.61,1.25c0.07,0.28,0.84,0.01,1.01,0.22c0.24-0.12,0.22-0.38,0.71-0.38 c-0.06-0.18-0.46-0.09-0.75-0.08c-0.09-0.35,1.7-0.5,0.66-0.85c0.69-0.3,2.08-0.84,2.65-0.73c-0.03-0.36-0.07-0.72-0.1-1.09 c-0.49,0.05-0.98,0.09-1.47,0.14c-0.05-0.61,0.05-0.91-0.8-0.55c-0.19-0.36,1.59-0.44,1.26,0.19c0.25-0.02,0.49-0.05,0.74-0.07 c0.35-0.43,0.55-0.81,1.43-0.6c0.33,0.38-0.7,0.73,0.3,0.6c-0.12,0.48-0.54-0.1-0.99,0.08c0.04-0.17,0.48-0.15,0.47-0.35 c-0.21-0.26-0.45,0.02-0.74,0.06c-0.07,0.79,2.35,0.33,1.36,1.29c0.91,0.11,0.9-0.84,0.99,0.07c0.96-0.1,0.7-0.83,1.65-0.92 c-0.25-0.14-0.51-0.27-0.78-0.4c0-0.3,0.98,0.19,0.96-0.4c-0.13-0.22-0.31,0.09-0.74,0.06c-0.02-0.21-0.03-0.41-0.05-0.62 c1.56,0.02,2.24-0.12,3.68-0.45c-0.23-0.22-0.65-0.29-1.26-0.22c-1.1,0.47-3.32,0.3-5.43,0.46c-0.11-0.4,0.03-0.68,0.69-0.69 c-0.25,1.03,1.13-0.2,1.52,0.34c0.34-0.52,1.3-1.02,1.13-1.35c-0.24-0.47-0.92,0.79-1.25-0.05c-0.6,0.35,0.27,0.53-0.17,0.95 c-0.53-0.15-0.73-0.55-1.3-0.67c-0.49,0.63-1.01,0.43-2.43,0.69c0.05-0.17,0.48-0.15,0.47-0.36c-0.06-0.34-1.05,0.03-1.5-0.01 c0.13,0.29,0.15,0.66,0.8,0.55c-0.33,0.4-0.58,0.3-1.22,0.27c-0.11-0.35-0.02-0.6,0.17-0.8c-0.9,0.44-2.84-0.16-3.43,0.64 c0.03,0.24,0.73,0.44,0.5-0.05c0.68,0.08-0.05,0.64-0.69,0.54L90,18.02c-0.58,0.06-1.15,0.12-1.73,0.18c1,0.68-0.28,0.36-0.92,0.73 c-0.81-0.09,0.19-0.47,0.71-0.39c-0.7-0.62-1.74-0.15-2.73,0.13c0.07,0.28,0.84,0.01,1.02,0.21c0.25,1.2-1.94,1.2-1.99,2.26 c-0.21-0.06-0.42-0.12-0.75-0.07c0.03-0.43,1.36-0.81-0.09-0.78c0.56-0.54,0.99-0.24,1.94-0.53c-0.06-0.18,0.02-0.28,0.21-0.34 c-0.07-0.17-0.26-0.06-0.24,0.03c-0.58-0.47-0.69-1.51-2.27-0.21c-0.56-0.11-1.05-0.28-2.01-0.08c0.61,0.29,1.32,0.67,1.36,0.94 c-0.18,0.4-0.94,0.52-1.67,0.66c0.56-0.45-0.64-0.83,0.38-0.99c-0.72-0.04-1.03-0.42-2.03-0.24c0.39,0.25,0.99,0.34,1.1,0.82 c-0.6,0.4-1.64,0.59-2.39,0.92c0.3,0.02,0.87,0.13,1.53,0.28c-0.03,0.32-0.63,0.39-0.66,0.71c-0.26-0.07-0.29-0.33-0.77-0.22 c0.33,1.01,1.55,0.22,2.57,0.63c0.89-0.4,1.3-1.03,1.27-1.87c0.2,0.01,0.26,0.13,0.51,0.1c-0.03,0.14,0.11,0.13,0.27,0.13 c-0.17,0.17-0.42,0.29-0.7,0.4c0.14,0.28,0.58,0.33,0.58,0.72c2.37,0.25,0.14,1.34,3.05,0.59c-0.25,0.27-0.76,0.41-0.65,0.86 c-1.58-0.11-0.77,0.78-1.47,0.17c-0.43,0.09-0.53,0.33-0.41,0.68c0.02,0.14,0.26,0.1,0.45,0.1c-0.3,0.09-1.72,1.24-0.27,1.45 c0.15,0.42-0.96-0.28-0.96,0.27c-0.53-0.7-2.55-0.2-3.08-0.89c-0.68,0.29-1.48,0.94-0.88,0.89c-0.15,0.48-0.8,0.01-1.22,0.15 c-0.04-0.31,0.64-0.28,0.41-0.68c-0.11-0.39-0.39,0.26-0.98,0.12c-0.16-0.32,0.31-0.34,0.69-0.4c-0.18-0.42-1.3-0.07-1.1-0.81 c-0.44,0.03-0.49,0.25-0.95,0.27c0.08,0.39,0.43,0.56,1.05,0.5c-0.54,0.23-0.6,0.69-1.12,0.93c0,0.34,0.87-0.04,1.24,0 c-0.35,0.28-0.18,0.73,0.57,0.56c-0.39,0.46,0.16,0.45-0.13,0.96c-0.4,0.05-0.81,0.1-1.21,0.15c0.27,0.18,0.3,0.55,0.81,0.53 c-0.33,0.15-1.67,0.52-2.6,0.81c0.47,0.13,1.25,0.43,0.08,0.62c0.13,0.18,0.35,0.28,0.76,0.21c-0.26,0.51-2.05,0.3-1.82,1.03 c-0.49-0.28-1.06-0.38-1.73-0.09c0.05-0.55,1.06-0.66,1.32-1.12c-0.85-0.38-1.22,0.68-2.11,0.76c-0.11-0.53,1.18-0.42,1.1-0.94 c-0.33-0.18-0.87-0.18-1.49-0.11c-0.91,0.93-1.21,2.14-3.83,2.29c-0.46,0.17-0.48,0.55-0.86,0.77c0.37,0.2,2.48-0.01,2.1-0.63 c0.33,0.05,0.49,0.27,0.57,0.55c-1.7,0.26-1.73,0.74-3.55,0.69c-0.45-0.49,0.79-0.22,0.64-0.58c-0.03-0.44-1.45,0.36-1.48-0.08 c-0.17-0.62,0.48-0.16,0.93-0.31c-0.37-0.18-0.81-0.21,0.19-0.35c-0.47-0.6-0.6-0.59,0.07-1.12c-1.05-1.25-1.72-0.34-4.16,0.02 c0.13-0.56,0.53-0.1,0.91-0.46c-0.15-0.28-0.58-0.31-0.61-0.7c0.27,0.23,0.85,0.19,1.06,0.47c0.82-0.15,0.85-1.13,1.84-0.76 c0.3-0.7-1.86-0.94-1.49-0.08c-0.25,0.54-0.33-0.51-0.36-0.73c-0.51,0.4-1.45,0.6-2.59,0.74c-0.37,0.32-0.61,0.7-0.8,1.09 c-0.4,0.07-0.8,0.14-1.19,0.2c0.07-0.53,1.06-0.45,0.32-1c-0.63,0.16-1.4,0.43-2.19,0.63c-0.79,0.2-1.6,0.33-2.34,0.19 c-0.89,0.66,0.88,0.93,0.26,1.38c0.93-0.26,0.7-0.22,1.66-0.31c-0.16-0.31-0.94-0.13-0.41-0.88c0.21,0.05,0.42,0.09,0.74,0.02 c-0.07,0.61,0.59,0.34,1.12,0.75c0.36-0.39,0.71-0.26,0.9-0.47c0.54-0.14,0.34,0.4,0.79,0.34c0.2,0.47-1.76,0.75-1.05,0.97 c-1.31,0.05-3.22,0.57-4.66,1.18c-0.37-0.13-0.55-0.44-0.65-0.83c0.52-0.02,0.41-0.3,0.38-0.55c0.32-0.06,0.63-0.12,0.95-0.18 c-0.23-0.32-0.31-0.62-0.71-1.14c-1.42,0.45-1.86,0.52-3.29,0.81c0.35-0.43,0.24-1.03,1.24-1.21c-0.3-0.75-1.75,0.04-2.4,0.34 c0.11,0.26,0.48,0.26,1.01,0.11c-0.88,0.88-1.06,2.03-2.38,2.72c-0.14-0.44-1.53-0.54-1.97-0.04c-0.55,0.01-0.64-0.47-1.31-0.34 c0.58-0.67,1.14-0.31,1.9-0.27c0.95-0.56,0.59-1.02,0.98-1.17c-0.07-0.31-0.69-0.06-0.61-0.51c-0.7,0.16-0.14,0.79-0.5,1.07 c-0.26,0.02-0.23-0.27-0.53-0.2c0.54-0.74-0.11-1.24-1.01-1.21c-0.2-0.58,1.05-0.64,0.98-1.18c-0.45-0.33-3.01,1.06-1.25,1.08 c-0.72,0.47-0.9,0.32-0.77,0.97c-0.2,0.54-0.4-0.36-0.11-0.46c-0.32,0.07-0.63,0.14-0.95,0.21c0.55,0.02,0.83,0.49-0.09,0.66 c0.07-1.02-1.35-0.49-1.54-1.24c1.24-0.08,1.56-1,2.13-0.5c-0.08-0.12,0.06-0.16,0.2-0.21c-1-0.23-1.56,0.11-2.95,0.22 c0.1-0.49,0.31-0.26,0.91-0.39c-0.17-0.63-1.25-0.1-1.29-0.16c-0.83-0.03,0.65-0.41,0.6-0.63c-0.1-0.27-0.83,0.11-1.02-0.07 c-0.82,0.89-0.63,1.14-0.77,1.96c0.21,0.17,0.57,0.16,1.02,0.07c-0.73,0.34-3.28,1.39-3.6,0.59c1.02-0.11,1.51-0.72,2.12-0.54 c0.31-0.13,0.1-0.43,0.08-0.66c-0.76,0.11-0.76,0.48-1.61,0.56c-0.09-0.3-0.69-0.02-0.63-0.48c0.31-0.09,0.63-0.17,0.94-0.24 c-0.63-0.19-0.52-0.41-0.23-0.91c-0.69-0.27-1.01,0.78-1.49,1.04c-1.09-0.03-1.16-1.2-2.34-1.14c-0.94,0.14-0.71,1.01-1.57,0.76 c-0.12-0.15,1.12-0.3,0.39-0.43c1.3-0.84,3.82-1.06,3.63-1.64c1.04-0.21,0.45,0.43,0.91,0.57c0.57-0.09,0.91-0.25,1.15-0.45 c-0.36-0.36-1,0.05-0.67-0.64c-0.04-0.34-0.87,0.14-1.24,0.15c0.62-0.72-0.6-0.64-1.19-0.64c0.45-1.36-2.54,1.01-3.76,0.39 c-0.38,0.25-0.28,0.65-0.5,0.96c-1.08,0.36-3.21,0.72-2.48,1.23c-0.42,0.15-0.55-0.03-0.99,0.14c0.64-0.43-0.86-0.59,0.24-0.89 c-0.58-0.14-1.13-0.21-1.76,0.22c-0.05-0.42-0.62-0.22-1.09-0.13c0.3-0.43-0.08-0.18-0.19-0.59c0.32-0.11,0.63-0.21,0.95-0.32 c-0.67-0.36-0.1-0.27,0.33-0.6c-0.06-0.24-0.29-0.53,0.05-0.67c-0.28-0.17-0.84,0.03-1.29,0.09c-0.19,0.14-0.39,0.27-0.38,0.46 c0.1,0.16,0.48-0.02,0.76-0.09c0.23,0.8-1.05,0.29-0.24,0.9c-1.36,0.7-4.12,0.35-5.77,0.98c-0.6,0.37,0.73,0.04,0.5,0.65 c-0.31,0.11-0.63,0.23-0.94,0.34c0.34-0.82-0.6-0.84-1.75-0.36c-0.12-0.43,0.89-0.63,1.56-0.9c-0.11-0.07-0.22-0.13-0.37-0.14 c1.17-0.09,2.44-0.64,3.57-0.66c-0.19-0.08-0.38-0.17-0.1-0.29c-0.14-0.32-1.04,0.27-1.48,0.34c0.12-0.2,0.35-0.38,0.61-0.55 c-1.51-0.1-4.19,1.29-5.21,0.56c-0.1-0.38,0.8-0.34,0.96-0.35c0.25-0.13,0.06-0.35,0.37-0.47c-0.23-0.14-0.62-0.09-1.07,0.06 c0.29-0.44-0.09-0.18-0.22-0.59c0.81-0.08,0.69-0.46,1.64-0.76c0.42,0.04,0.58,0.42,0.99,0.47c-0.13,0.29-0.49,0.53-1.1,0.73 c0.32,0.51,1.29-0.64,1.84-0.17c0.66-0.56-0.35-0.98,1.38-1.48c-0.04,0.35-0.29,0.66-0.76,0.93c0.56,0.5,1.44-0.65,2.08-0.21 c0.92-0.99-2,0.15-0.49-0.66c-0.28-0.43-1.2-0.1-1.52-0.48c0.21-0.04,0.3,0.07,0.54-0.02c0.34-0.18-0.16-0.16-0.15-0.44 c0.72-0.27,1.04,0.24,0.74,0.58c1.09-0.39,0.42-0.55,1.66-0.71c-0.8,0.06-0.98-0.1-0.49-0.66c-0.26-0.25-1.18,0.28-1.38-0.04 c-0.31,0.25-0.7,0.48-0.53,0.83c-1.28,0.29-1.76-0.37-3.42,0.4c-0.11,0.39-0.5,0.72-0.7,1.08c-0.48,0.18-0.46-0.29-1.08,0.06 c-0.08-0.38,0.79-0.89-0.28-0.73c1.11-0.63,2.49-0.86,3.52-0.95c0.62-0.26-0.42-0.13-0.21-0.59c0.74-0.35,0.79,0.16,1.38,0 c1.01-0.44,0.79-0.63,0.43-1.13c-0.6,0.36-1.45,0.71-2.4,1.02c-0.05-0.38,1.13-0.51,0.77-0.95c1.39-0.58,2.35-0.31,4.05-1.04 c-0.14-0.38-1.11,0.19-0.98-0.5c1.02-0.12,1.82-0.4,2.72-0.7c0.91-0.27,1.93-0.56,3.37-0.73c-0.12,0.88-2.05,1-2.74,0.83 c-0.2,0.13-0.4,0.26-0.4,0.45c1.58,0.15,2.96,0.27,4.6-0.9c-0.23-0.08-0.37-0.26-0.42-0.53c1.46-0.82,2.44-0.72,3.78-0.9 c-0.11-0.78,1.86-0.93,1.6-2.06c-0.13-0.18-0.66,0.05-1.04,0.12c-0.29,0.11-0.14,0.33-0.13,0.52c-0.95,0-1.1-0.4-1.92-0.12 c0.97-0.79,3.13-0.66,3.99-1.23c0.18,0.43-0.86,0.81,0.19,0.76c0,0.23-0.74,0.24-0.67,0.49c0.46,0.15,0.92-0.3,1.58-0.07 c-0.05,0.25-0.22,0.04-0.5,0.12c-0.42,0.15,0.46,0.44-0.64,0.64c0.18,0.26,0.64,0.25,0.7,0.63c-0.99,0.31-2.75,0.81-3.61,0.48 c-0.1,0.6-0.61,0.59-1.45,0.56c0.31,0.41,0.26,0.24,0.21,0.75c1.2-0.25,0.22-0.26,0.62-0.65c0.95,0,0.14,0.72,1.24,0.63 c0.08-0.8,0.08-0.24,1.24-0.34c0.3-0.12,0.2-0.54-0.12-0.45c2.02-0.43,2.27-1.11,2.89-2.2c0.38-0.03-0.05,0.22,0.11,0.46 c0.54-0.07,0.63-0.27,0.96-0.4c-1.13-0.64,0.4,0.13,1.21-0.47c0.37,0.56,2.32,0.43,2-0.47c-0.64,0.33-0.87,0.72-1.07-0.07 c-0.85,0.47-2.06,0.51-2.19-0.26c0.91-0.26,0.91-0.45,1.76-0.44c-0.31-0.5-2.08,0.44-2.63,0.17c0.59-0.61,2.17-0.93,2.56-1.6 c0.7,0.62,4.07,0.07,6.05-0.24c0.64-0.1,1.78-0.85,1.83-0.06c-0.88,0.19-1.68,0.5-2.49,0.7c-0.82,0.21-1.65,0.32-2.62,0.08 c0.09,0.95-2.14,0.3-2.09,1.28c1.52-0.05,3.12-0.52,4.68-0.84c1.56-0.29,3.07-0.43,4.37,0.15c0.58-0.17,0.89-0.44,1.72-0.5 c-0.21-0.11-0.5-0.15-0.81-0.16c0.11-0.15,0.21-0.3,0.16-0.51c0.77,0.25,1.34-0.04,1.7-0.64c-1.47-0.1-2.28,0.32-3.84,0.44 c-0.07-0.12,0.07-0.17,0.22-0.21c0.02-0.14-0.13-0.12-0.28-0.1c0.08-0.35,1,0.02,1.54-0.16c0.67-0.18,0.33-0.73,0.86-0.96 c0.72-0.05,0.77,0.51,1.63,0.33c0.86-1.03,3.17-0.07,3.73-1c0.47,0.06,0.72,0.32,1.57,0.05c-0.06,0.55-1.66,0.49-2.19,0.85 c1,0.15,3.23-0.43,3.73-0.96c-0.47-0.69-1,0.43-1.54,0.11c1.54-1.44,2.73-0.04,3.86-0.17c0.1,0.38-0.31,0.54-0.66,0.73 c-2.02-0.06-4.75,0.46-6.79,1.18c0.63-0.56-0.65-0.32-1.12-0.42c-0.51,0.14-0.42,0.51-0.92,0.65c0.8,0.3,1.59,0.6,2.71,0.6 c-0.51-0.51-0.44-0.1-0.14-0.77c1.39,0.07,2.94-1.07,3.35-0.11c0.3-0.12,0.48-0.29,0.42-0.55c1.13,0.43,2.56,0.3,4.13-0.02 c1.57-0.32,3.27-0.87,4.93-1.25C62,11.96,60.09,12.35,59,12.72c-0.62-0.08,0.56-0.61,0.91-0.77c1.2,0.25,2.15-0.18,3.24-0.66 c-0.61-0.19-1.52-0.1-2.56,0.08c0.84-0.62,1.16-0.2,1.37-1.16c0.42,0.28,1.24,0.23,2.08,0.17c-0.68-0.17-0.42-0.69-0.43-1.2 c0.78-0.19,0.73,0.32,1.33,0.28c-0.18,0.47-0.71-0.13-0.99,0.3c0.15,0.33,1.34-0.19,1.55,0.09c0.12-0.5-0.74-0.2-0.61-0.7 c1,0.31,0.67-0.18,1.79-0.1c0.29-0.07,0.17-0.31,0.19-0.5c-0.52-0.2-1.36-0.14-2.09-0.17c-0.22,0.15-0.34,0.34-0.44,0.54 c0.15-0.78-2.99,0.04-4.62,0.23c0.05-0.5-0.46-0.55-0.65-0.85c-0.76-0.01-2.86,0.59-1.47,0.55c-0.93,0.57-0.5-0.47-1.63-0.36 c-0.13,0.57-2.11,0.42-1.9,1.12c-0.71,0.15,0.23-0.84-0.31-0.26c-0.38-0.01,0-0.14-0.05-0.31c-2.02-0.05-3.53,0.75-5.72,0.41 c0.22,0.94-1.27,0.04-1.98,0.7c-1.07-0.44-2.06-0.01-3.38,0.38c0.04-0.28-0.26-0.25-0.57-0.2c-0.42-0.31,0.62-0.79-0.16-0.76 c0.22-0.25,1.12,0.42,2.37-0.17c0.1-0.57-0.5-0.51-0.48-1.02c0.26-0.05,0.51-0.11,0.77-0.16c0.53,0.17-0.02,0.47-0.1,0.82 c0.49,0.19,1.25,0.08,1.99-0.07c0.74-0.15,1.47-0.35,1.91-0.38c0.56-0.19-0.36-0.18,0.17-0.51c-0.75,0.01-0.62,0.34-1.25,0.39 c0.1-0.51-0.76-0.16-0.66-0.67c2.01-0.12,3.24-0.38,4.45-0.66c1.21-0.27,2.4-0.56,4.3-0.76c-0.07,0.52,0.56,0.39,0.13,0.77 c1.27-0.08,1.16-0.7,1.66-1.07c0.47,0.19,1.52-0.11,2.32-0.21c0.12,0.43,0.16,0.84-0.65,0.89c-0.07,0.64,1.04,0.29,1.86,0.18 c-0.5-0.57-0.04-1.54,1.57-1.66c-2.23,1,1.68,1.64,1.96,0.98c0.63,0,0.63,0.52,1.59,0.24l0.13,0.93c0.61-0.03-0.24-0.69,0.69-0.57 c-0.2-0.3-0.56-0.46-1.1-0.47c-0.19-0.47,0.38-0.61,0.1-1.12c1.44-0.33,2.29-0.15,3.57-0.33c-0.02,0.36,0.14,0.57,0.59,0.55 c1.27-0.57,3.14-1.02,4.55-0.59c0.35-0.1-0.01-0.28-0.29-0.28c0.48-0.42,1.14,0.56,2.04-0.09c0.24,0.45-0.85,0.3-0.41,0.84 c-0.63-0.59-1.72,0.03-2.58-0.15c0,0.28,0.35,0.29,0.33,0.59c1.09-0.6,2.99,0.46,3.49-0.75c1.35,0.2,1.47,0.32,3.1,0.27 c-0.29-0.7,1.76-0.16,1.46-0.64C82.5,3.88,83,5.45,81.57,5.44c0.68,0.14,1.14,0.45,1.85,0.57c-0.02,0.19-0.45,0.18-0.74,0.24 c0.64,0.47,0.85-0.47,1.75-0.35c-0.64,0.66,1.54,0.3,2.57,0.2c-0.27,0.63-1.9,0.06-2.47,0.73c0.14,0.34,1.25-0.07,1.78-0.03 c-0.5,0.64-2.49,0.58-2.65,1.38c-0.7,0.21-0.68-0.14-1.27-0.01c-0.1-0.24,0.2-0.29,0.2-0.49C81.7,7.7,81.75,8.17,81.4,8.44 c-0.9,0.09-0.39-0.94-1.59-0.6c0.48-1,1.79-0.56,3.23-0.69c-0.85-0.66-1.8-0.2-2.87-0.61c-0.29,0.06-0.18,0.31-0.19,0.49 c-1.85-0.48-4.81,0.3-6.15-0.2c0.06,0.73-1.38,0.31-2.48,0.63c-0.72,0.31-0.92,0.85-1.64,1.16c0.56-0.18,3.57,0.28,4.76-0.77 C74.63,8.44,74.79,8.5,75.37,9c-0.4,0.06-0.97,0.04-0.99,0.28c1,0.23,2-0.1,2.79-0.03c-0.46,0.63-1.64,0.41-2.46,0.62 c3.8,0.68,6.43-0.71,10.33-0.58c-1.22-0.64-2.44-0.14-5.08-0.05c1.06-0.92,4.97-0.5,6.47-1.19c0.36,0,0.14,0.45,0.55,0.41 c-0.03,0.33-1.1,0.16-0.95,0.57c0.14,0.34,1.33-0.14,1.54,0.15c-0.99,0.56-3.81,0.22-4.46,0.95c0.64,0.08,1.77-0.07,0.82,0.53 c-0.02,0.26,1.67,0.14,1.23-0.29c0.21-0.05,0.24,0.04,0.26,0.13c-0.03,0.14,0.12,0.14,0.27,0.13c-0.03,0.33-1.1,0.16-1.22,0.44 c-0.01,0.34,0.26,0.47,0.8,0.38c-0.2,0.34-0.44,0.67-0.65,1.01c-0.04,0.37,0.74,0.1,0.8,0.39c0.68-0.55,0.96-0.57,1.74-0.19 c0.05,0.46-1.87-0.02-1.45,0.62c-1.02-0.21-0.64,0.1-1.99,0.22c0.55,0.24,1.24,0.37,2.06,0.41c0.23,0.46-0.38,0.5-0.15,0.96 c0.75-0.17,0.69-0.74,1.41-0.94c-0.07-0.24-1.16,0.38-1.04-0.36c0.79,0.09,0.94-0.03,0.23-0.18c0.74-0.45,1.21-0.26,1.96-0.52 c-0.2-0.12-0.48-0.19-0.78-0.23c0.15-0.86,2.86-0.49,2.35-1.66c-1.04-0.11-0.76,0.42-1.47,0.47c-0.46-0.22,0.3-0.65-0.81-0.54 c0.08-0.26,0.77-0.22,0.44-0.68c0.65,0.21,1.56-0.72,2.49-0.41c-0.17,0.68,0,0.66-0.38,1.29c0.76,1.18,5.01,0.44,4.75,2.21 c0.92,0.07,0.04-0.77,1.2-0.58c0.48-0.06-0.44-0.55,0.18-0.8c0.94-0.1,1.37,0.19,1.57,0.65c0.65-0.32-0.55-0.74,0.42-0.98 c-1.6-0.02-0.91-0.83-2.13-1.23c0.41-0.26,1.17-0.02,1.99-0.33c0.23,0.46-0.85,0.26-0.43,0.82c0.45,0.38,2.22,0.37,1.98-0.48 c0.9,0.14-0.31,1.21,0.36,1.22c-0.79,0.87-1.15,1.2-0.58,2.09c1.19-0.04,2.03-0.25,2.71-0.54c-0.14-0.12-0.28-0.23-0.28-0.45 c-0.61-0.02-0.52,0.32-1.24,0.25c-0.06-0.29-0.21-0.51-0.55-0.58c0.67-0.41,2.09-0.41,1.65-1.39c0.96,0.46,1.01-0.46,2.49-0.34 c-0.28-0.4-1.18-0.34-0.85-1.19c0.41,0.16,1.02,0.42,1.52,0.04c-0.1-0.2-0.46-0.21-0.54-0.43c-0.37,0.1,0.11,0.19,0.03,0.47 c-0.68-0.64-1.7-0.08-2.08-0.78c0.73,0.36,2.62-0.27,3.03-0.07c-0.62-0.92-3.08-0.7-4.06-0.17c0.06,0.17,0.26,0.07,0.25-0.02 c0.51-0.08-0.71,1.48,0.09,1.09c0.63,0.1-0.28,0.64-0.7,0.68c0.51-0.61-0.69-1.29-0.65-1.82c-0.86-0.09-0.35,0.52-0.44,0.82 c0.62-0.07,0.44,0.15,0.01,0.16c-0.36-0.17-0.3-0.65-0.34-1.07c-1.71-0.2-2.54,0.78-3.05-0.05c0.48,0.22,1.55-0.09,1.74-0.46 c0.58,0.45,2.88,0.45,2.75-0.55c0.33-0.02,0.67-0.05,1.01-0.08c-1.22,0.86,0.96,0.55,2.32,0.45c0.57-0.57,0.35-0.71,0.16-1.26 c1.12-0.48,1.64-0.76,1.43-1.36c0.69-0.07,0.53,0.22,1.02-0.07c0.14-0.59-0.92-0.33-1.31-0.54c0.17-0.29,0.46-0.06,0.76-0.06 c0.72-0.64,2.42,0.12,3.79-0.7c0.61,0.06,0.46,0.65,1.56,0.37c-1.2,0.82,0.49,1.02,1.35,1.34c0.27-0.36,1.1-0.41,1.76-0.55 c0.93,0.1-1.56,0.32-0.49,0.49c-0.23,0.45-0.69-0.19-1.01,0.21c0.62,0.5,0.31,0.44-0.21,0.95c0.47,0.45,1.71,0.21,2.8,0.02 c-0.15,0.59,0.91,0.34,1.3,0.56c0.53-0.12-0.39-0.57-0.3-0.92c-1.06,0.13-1.72,0-2.3-0.2c0.29-0.3,1.57,0.1,2.54-0.12 c0.68-0.18-0.69-0.26-0.29-0.77c0.66,0.14,1.11,0.42,1.31,0.88c0.47-0.29,1.68-0.17,2.54-0.24c-0.21-0.68-2.01,0.05-2.3-0.23 c0.04-0.18,0.25-0.1,0.26-0.01c0.45-0.05,0.57-0.29,0.48-0.64c1.43,0.62,3.46,0.07,4.86,0.31c0.03-0.44-0.87-0.28-0.54-0.92 c-0.62,0.15-1.47,0.32-1.54-0.26c0.93-0.13,1.37,0.06,1.8,0.25c1.1-0.56-1.8-0.49-0.28-0.93c-0.39-0.22-1.13-0.21-1.8-0.25 c0.32-0.22,0.77-0.34-0.01-0.47c0.81-0.42,2.78-0.22,3.09,0.23c0.45-0.46,2.02-0.27,2.82-0.52c-1.19,0.42,0.44,0.42,1.04,0.6 c0.3-0.24,1.07-0.2,1.02-0.64c0.78,0.46,1.8,0.13,3.1,0.46c-0.48,0.3-0.47,0.12-0.25,0.62c-0.23,0.12-0.58,0.17-1.03,0.16 c0.86,0.48,2.53,0.39,4.37,0.16c-0.11,0.24-0.81,0.12-0.52,0.62c-0.51,0-1.03,0-1.54,0c0.07,0.39,0.96,0.52,0.25,0.94 c0.3-0.03,0.46,0.03,0.51,0.15c0.23-0.58,1.09,0.11,1.03-0.46c0.46-0.01,0.54,0.2,1.02,0.17c-0.17,0.32-1.2,0.09-1.28,0.45 c0.22,0.54,1.03-0.03,1.79,0.34c-1.28,0.38-1.24,1.37-2.56,1.07c-0.69,0.14,0.67,0.29,0.25,0.78c-1.83,0.15-0.09-1.49-2.04-0.93 c1.15-0.29,0.54-0.81-0.77-0.78c-0.2,0.08-0.41,0.16-0.76,0.16c0.11,0.14,0.23,0.28,0.51,0.31c-0.4,0.57-0.38-0.36-1.02-0.15 c-0.22,0.22-0.36,1.03,0.26,1.4c0.07,0.51-0.98,0.34-1.01,0.78c-0.06-0.6-0.72-2.13-1.55-1.85c-0.82-0.16,0.24-0.45,0.76-0.33 c-0.22-0.23-0.82-0.21-1.28-0.29c-0.33,0.06-0.4,0.28-0.76,0.33c0.04,0.29,0.18,0.52,0.52,0.62c-0.27,0.38-1.65-0.67-1.01,0.33 c-0.87-0.16-0.98-0.99-2.05-0.58c0.02,0.46,1.21,0.18,1.54,0.44c0.08,0.41-0.34,0.52-1.01,0.49c0.5-0.4-0.68-0.73-1.54-0.75 c0.56,0.44,1.47,0.64,1.56,1.37c0.77-0.01,0.59-0.57,1.51-0.5c-0.59,0.47,0.5,0.57,0.01,0.78c-0.31,0.18-0.52,0.15-0.51-0.15 c-0.23,0.12-0.38,0.29-0.49,0.48c0.04,0.29,0.86,0.08,1.02,0.29c-0.08,0.62-1.35-0.21-1.25,0.65c0.66-0.69,3.43,0.52,4.29-0.23 c-1.71-0.37,1.92-0.83,1.25-1.57c0.49,0.29,0.2,0.29,1.01,0.15c0.22,0.5-0.65,0.32-0.76,0.63c-0.29,0.54,1.42,0.72,1.02,0 c0.61,0.09-0.12,1.01,0.76,0.93c-0.74,0.79-1.14,0.07-2.27,0.32c0.11-0.19,0.32-0.32,0.75-0.31c0.01-0.27-0.19-0.4-0.51-0.47 c-0.82-0.19-0.19,0.51-1.01,0.32c0.37,0.37,0.53,0.29,0.26,0.78c-0.69-0.01-0.51,0.26-1.01,0.01c0.34,0.56,2.43,0.21,3.03,0.61 c0.58,0,2.04-0.78,1.01-0.78c0.14-0.54,1.58-0.28,1.77-0.79c-0.25-0.38-1.12,0.31-1.01-0.47c0.23,0.12,0.57,0.17,1.01,0.15 c-0.03-0.29-0.16-0.52-0.5-0.62c0.43-0.41,1.27,0.25,1.01,0.79c1.34-0.56-0.17-0.86,0.52-1.87c0.15-0.59,0.59,0.62,0,0.47 c1.52,0.63,3.07-0.77,4.84-0.4c-0.09-0.21-0.44-0.26-0.5-0.48c-0.26,0.1-0.27,0.35-0.77,0.3c0.26-0.93,1.51-0.26,1.04-1.08 c0.48,0.7,1.04,0.42,1.77,0.99c0.27-0.35,1-0.4,1.3-0.74c-0.25-0.22-0.67-0.33-1.01-0.5c1.29-0.75,2.93,0.13,4.36-0.01 c0.2-0.41-0.52-0.33-0.75-0.5c1.04-0.47,1.62,1.2,3.82,0.81c0.34-0.8-1.17-0.49-1.25-0.69c0.09-0.86,1.41,0.59,1.56-0.23 c0.36,0.21,0.36,0.61,0.73,0.82c1.01-0.11,0.07-0.53,0.32-1.08c-0.87-0.09-2.09,0.01-2.57-0.29c0.66-0.22,2.04-0.56,2.6-0.34 c-0.28-0.21-0.21-0.33,0.28-0.3c-0.11-0.14-0.21-0.29-0.5-0.34c0.45-0.22,0.93,0.09,1.82-0.05c0.28,0.25,0.27,0.41-0.04,0.62 c0.2,0.25,0.82,0.28,1.27,0.4c0.66-0.79,2.7,0.62,3.14-0.4c1.66,0.67,4.43,1,5.66,0.82c0.08-0.63-1.57-0.19-1.52-0.45 c-0.18-0.65,1.38,0.32,1.84-0.14c-0.06-0.22-0.63-0.19-1.02-0.25c-0.95-0.4,1.23,0.15,1.07-0.22c0.62,0.28,0.4,0.58,0.17,0.95 c0.68,0.45,3.82,1.3,4.64,0.52c0.63,0.01-0.23,0.69,0.72,0.55c0.42,0.11,0.05-0.58-0.18-0.65c0.27-0.43,0.82,0.18,1.29,0.16 c-0.7-0.47-0.8-0.97,0.16-1.24c-0.19,0.55,0.08,0.93-0.24,1.86c0.95,0,0.69-1.63,1.95-0.84c0.43-0.62-1.21-0.36-0.93-0.91 c0.9,0.5,1.58-0.38,2.2-0.65c-0.47-0.53-0.6,0.65-1.62,0.25c0.58-0.7-0.04-0.59-0.38-1.15c0.22,0,0.24,0.09,0.24,0.19 c0.98-0.19,2.77,0.26,3-0.54c0.28,0.38,0.85,0.44,1.46,0.46c0.6,0.04,1.24,0.04,1.64,0.32c-0.09,0.16-0.54,0.02-0.57,0.22 c1.29,0.22,0.24-0.43,0.9-0.64c-0.81-0.44-1.72-0.64-2.29-0.83c0.64-0.65,3.07,0.2,3.11-0.93c0.51,0.36,0.72,0.47,1.55,0.41 c-0.02-0.28-0.39-0.42-1-0.48c1.17,0.06,2.25,0.23,3.26,0.48c1.01,0.26,1.94,0.58,2.84,0.91c0.89,0.34,1.74,0.66,2.56,0.98 c0.82,0.32,1.63,0.61,2.44,0.81c0.49-1.01,2.68,1.28,4.25,0.61c0.33,0.15-0.46,0.58,0.34,0.89c0.61-0.11,1.51,0.08,1.74-0.38 c0.69,0.73-1.32,0.47-1.36,1.12c0.2,0.36,1.48,0.4,1.44,0.83c0.78,0.05,0.35-0.16,0.41-0.54c0.92,0.31,1.17,0.39,2.25,0.87 c0.4-0.17,0.95-0.18,1.67-0.04c-0.78-0.57-1.72-0.88-2.37-0.46c-0.75-0.29-0.56-0.86-1.37-1.13c0.33-0.18,1.14,0.1,1.87,0.3 c0.73,0.2,1.38,0.36,1.4-0.13c2.19,0.77,4.26,1.23,4.98,1.18c0.67,0.34-0.78,0.43,0.64,0.68c-0.36,0.46,0.3,0.78-0.26,0.9 c0.35,0.1,0.68,0.2,1.03,0.31c-0.4-0.58,0.62-0.02,0.22-0.75c0.43,0.13,0.86,0.26,1.29,0.39c-0.12-0.2-0.55-0.33-0.38-0.6 c-0.44-0.14-0.7-0.09-0.86,0.07c-0.82-0.2,0.78-0.24-0.13-0.53c0.13-0.32,1.12,0.27,1.6,0.32c-0.17,0.08-0.34,0.16-0.39,0.37 c0.8-0.13,1.82,0.26,2.74,0.59c0.91,0.34,1.71,0.64,2.09,0.26c1.5,0.16,2.37,1.73,3.03,1.17c-0.08,0.57,0.41,1,1.16,1.42 c0.75,0.42,1.78,0.78,2.81,1.15c0.3-0.6-1.02-0.92-0.9-1.49c0.42,0.43,0.33,0.11,1.02,0.37c-0.31,0.47,1.03,1.36,1.57,1.24 c0.48,0.19-0.66,0.41,0.29,0.77c-0.19,0.18-0.3-0.18-0.76-0.28c-0.28,0.02-0.48,0.13-0.67,0.25c0.57,0.42,1.1,0.64,1.59,0.83 c0.49,0.2,0.93,0.35,1.32,0.61c-0.54,0.11-1.76-0.64-1.98-0.1c-0.06-0.43,0.7-0.33-1.09-0.9c0.21,0.64-0.7,0.28-1.72,0.04 c1.05,0.36,0.04,0.98,0.54,0.86c0.26,0.47-0.69,0.03-1.31-0.31c-0.03,0.69,4.02,2.86,3.7,1.52c1.42,0.45-0.39,0.55,0.76,0.98 c0.75,0.13-0.21-0.53,0.48-0.48c0.55,0.12,1.56,0.83,1.79,0.55c-0.1,0.14-0.5,0.91,0.22,1.6c-0.47,0.29-0.47-0.92-1.18-0.64 c0.28,0.59,1.18,1.23,2.24,1.76c1.05,0.54,2.25,1.01,3.15,1.17c0.71,0.52,1.43,1.03,2.13,1.38c0.7,0.35,1.35,0.58,1.98,0.47 c-1.12-0.71-2.57-1.89-3.56-1.78c0.6-0.34-0.79-0.45-0.54-0.75c0.42,0.16,1.76,0.6,3.03,1.16c1.26,0.6,2.45,1.31,2.58,1.92 c0.96,0.48,0.81-0.06,0.82-0.47c0.74,0.86,1.97,0.78,2.27,0.22c0.53,0.37,1.82,0.72,1.84,1.12c0.51,0.29,0.36-0.44,0.6-0.57 c1.08,0.85,0.13,1.8,1.66,2.62c-1.6-0.6-2.36-0.98-2.87-0.26c0.76,0.56,2.16,1.26,1.85,2.19c1.07,0.53,1.91,1.15,2.62,1.73 c0.71,0.59,1.28,1.18,1.77,1.77c-0.07,0.34-0.36,0.27-0.54,0.41c0.11,0.49,1.98,0.94,0.98,1.45c0.8,0.3,1.85,1.04,3.06,1.5 c-1.16-0.13-1.16,1.28-2.69,0.92c-0.29-0.26,0.19-0.12,0.24-0.4c-0.62-0.51-0.64,0.11-1.26-0.4c-0.38,0.53-0.02,0.85-0.63,1.08 c0.25,0.49,0.51,0.98,1.51,1.47c-0.64,0.22-1.82-0.65-2.58-0.65c-0.04,0.5,0.66,0.15,1.09,0.65c-1.09,0.16-2.46-0.09-3.42,0.36 c0.34,0.62,0.2,1.27,0.25,1.9c0.05,0.63,0.26,1.26,1.28,1.89c-0.31,0.27-0.67,0.3,0.1,0.79c-0.37,0.04-0.92-0.29-1.29-0.24 c0.92,0.8,2.14,1.5,3.06,2.29c0.93,0.78,1.49,1.73,1.16,2.92C246.73,48.85,246.26,50.19,248.24,51.23z M126.92,3.2 c0.62,0.08,1.17,0.2,2.06,0.12C129.23,2.78,127.04,2.98,126.92,3.2z M124.89,4.33c0.31,0.52,0.51,0.24,0.28,0.93 c1.67,0.7,0.85-0.4,1.53-0.19c0.15-0.5-0.92-0.2-0.26-0.62C125.91,4.35,125.41,3.99,124.89,4.33z M75.04,6.37 c0.89-0.26,0.3,0.67,1.08,0.5c0.3-0.4,1.89-0.21,1.96-0.71c-1.06,0.16-1.34-0.3-2.09-0.37C76.47,6.34,74.91,5.97,75.04,6.37z M71.47,6.51c0.76-0.21,0.94,0.03,1.54-0.04C73.21,5.82,71.43,6.04,71.47,6.51z M51.7,8.1c0.08-0.09-2.89,0.06-3.13,0.27 c0.32,0.02,0.61,0.06,0.82,0.16C50.16,8.38,50.93,8.24,51.7,8.1z M58.87,7.06c-0.1-0.23-1.34-0.35-1.55,0.09 C57.42,7.37,58.66,7.49,58.87,7.06z M64.18,7.83c-0.77,0.1-1.27,0.33-1.45,0.68C63.48,8.4,64.28,8.3,64.18,7.83z M17.47,27.3 c-0.38-0.09-1.26,0.2-1.14,0.58C16.9,27.72,17.47,27.82,17.47,27.3z M27.28,22.83c0.7,0.09,2.56-0.55,0.94-0.43 c0.55-0.43,0.91-0.06,1.19-0.49c-0.49,0.01-0.97,0-1.56,0.1c0.02,0.29,0.46,0.68-0.32,0.74c-0.03-0.21,0.22-0.97-0.13-0.45 C27.44,22.51,27.15,22.61,27.28,22.83z M29.26,23.25c-0.8-0.18-2.05,0.93-0.81,0.87C28.12,23.66,29.28,23.62,29.26,23.25z M20.5,22.65c-0.55,0.23-0.41-0.34-0.88-0.2c0.18,0.41-1.67,0.36-1.08,0.85C18.82,23.57,20.57,23.17,20.5,22.65z M21.08,24.43 c-0.09-0.3,0.61-0.41,0.3-0.76c-0.55,0.24-0.95,0.29-1.27,0.26C20.3,24.25,20.57,24.48,21.08,24.43z M22.05,26.57 c-0.27-0.44-1.65-0.01-1.73,0.41C20.7,27.08,21.41,26.78,22.05,26.57z M22.54,24.77c-1.5,0.35-0.12,0.58-1.84,0.94 c0.03,0.58,0.86,0.21,1.6-0.04C22.3,25.35,22.69,25.13,22.54,24.77z M26.28,23.95c-0.55-0.05-0.97-0.24-1.25-0.6 c0.31-0.09,0.4,0.09,0.78-0.07c-0.42-0.84-2.26-0.36-3.12,0.29c0.2-0.02,0.48-0.14,0.54,0c0.32,0.21-0.58,0.72,0.19,0.6 c0.31-0.29,0.47-0.61,1.09-0.82c0.42,0.89-0.47,1.43-1.24,2.01c0.74-0.3,0.69,0.29,1.55-0.14C25.05,24.73,25.63,24.33,26.28,23.95z M28.72,27.78c-0.86,0.36-1.31,0.66-1.95,0.43c0.19,0.37-0.89,0.4-0.53,0.81C27.22,28.35,28.75,28.69,28.72,27.78z M30.9,25.39 c-0.68,0.18-2,0.12-2.7,0.59c0.88-0.14,0.43,0.44,0.22,0.75c0.56-0.17,1.12-0.32,1.68-0.48c-0.01-0.32-0.41-0.21-0.61-0.32 c0.24-0.07,0.25-0.2,0.44-0.28C29.83,25.94,31.14,25.58,30.9,25.39z M82.62,14.74c0.01,0.39,0.44,0.44,0.82,0.53 c0.19-0.3,0.88-0.36,0.92-0.74C83.6,14.68,83.14,14.32,82.62,14.74z M82.09,12.29c0.69-0.3,1.32,0.28,1.5-0.17 c-0.7-0.31,1.14,0.2,0.97-0.42C83.72,11.7,82.5,11.66,82.09,12.29z M71.29,9.05C73.4,9.23,73.5,8.32,71.29,9.05L71.29,9.05z M71.14,9.86c1.01-0.3,2.04,0.26,1.97-0.58c-0.58,0.12-0.97,0.1-1.28,0.01C72.3,9.79,71,9.5,71.14,9.86z M72.8,12.79 c-0.01-0.25,0.62-0.21,0.44-0.53c-0.52-0.23-0.44,0.15-1.25,0.17c-0.06,0.68,2.15,1.12,2.57,0.3C73.98,12.91,73.37,12.99,72.8,12.79 z M73.51,12.38c0.36,0.18,1.16,0.27,1.51-0.03c0.02-0.3-0.32-0.31-0.33-0.59C74.28,11.96,73.35,11.92,73.51,12.38z M72.53,20.38 c0.25,0.66,1.62,0.37,2.11,0.82c0.01-0.44,0.29-0.47,0.62-1.02C74.25,20.32,73.24,20.47,72.53,20.38z M71.11,15.37 c0.1,0.79-0.23,0.74-0.56,1.49c1-0.32,1.6-0.82,2.35-1.26C71.81,15.94,72.26,14.99,71.11,15.37z M71.84,24.56 c0.21-0.69-1.14-0.34-1.39-1.07c-0.36,0.08-0.91,0.06-0.96,0.29c1.12-0.08-0.42,0.77-0.07,1.27c1.14-0.08,1.55-0.18,2.28,0.32 c0.16-0.66,1.14-0.04,1.4-0.66c-0.26,0.03-0.22-0.17,0.22-0.19c0.03-0.31-0.37-0.26-0.55-0.4c0.73-0.16,1.29,0.24,1.44-0.35 c-0.63,0.07-1.17,0.07-1.5-0.12c-0.15-0.36,1.12-0.06,0.67-0.56c-0.82,0.11-0.96,0.53-1.38,0.81c0.19,0.01,0.48-0.06,0.51,0.09 C72.29,24.19,72.07,24.38,71.84,24.56z M70.41,26.8c-0.22,0.54-0.64,0.08-0.9,0.6c-0.15-0.72-1.26,0.46-1.28-0.29 c-0.6,0.07-1.17,0.14-1.43,0.36c-0.01,0.3,0.32,0.3,0.33,0.58c1.15-0.22,1.9-0.32,3.36-0.64C70.22,27.16,71.15,26.81,70.41,26.8z M66.15,23c0.56-0.13,0.94-0.11,1.24-0.02c-0.31-0.43,0.51-0.35,0.93-0.45c-0.79-0.15-0.21-0.59-1.64-1.03 C66.96,22.04,66.46,22.91,66.15,23z M65.74,16.75c0.83-0.17,0.91-0.66,1.11-1.11c-0.35-0.16-1.2-0.04-1.49,0.21 C65.24,16.36,65.85,16.25,65.74,16.75z M68.39,22.99c-0.28,0.07-0.7,0.07-0.71,0.26c0.74,0.1,1.42-0.08,1.67-0.56 c-0.19-0.1-1.42-0.15-1.47,0.21C68.07,22.91,68.36,22.84,68.39,22.99z M68.91,21.34c-0.65-0.07-1.41-0.27-1.72,0.25 C67.51,21.8,68.82,21.92,68.91,21.34z M67.77,15.04c0.05-0.57-2.28-0.03-2.51,0.2C66.19,15.46,66.74,14.91,67.77,15.04z M65.54,27.34c0.57-0.18,1.78-0.06,1.92-0.43c-0.3,0.01-0.17-0.15-0.04-0.31C66.35,26.65,65.94,26.99,65.54,27.34z M71.05,26.09 c-0.15,0.01-0.29,0.02-0.26-0.12l-0.49,0.06c0.45,0.5-0.81,0.21-0.66,0.56C70.3,26.9,70.76,26.38,71.05,26.09z M72.39,19.3 c-0.81-0.06-1.38,0.37-1.79-0.23c0.09,0.38-0.31,0.53-0.65,0.72c-0.07-0.11-0.23-0.15-0.52-0.09c0.06-0.23,0.26-0.3-0.06-0.46 c-0.77-0.01-0.69,0.37-1.46,0.36C69.12,20.56,71.15,19.96,72.39,19.3z M71.98,14.31c-0.64-0.03-1.04-0.02-1.47,0.35 C70.86,14.84,72.03,14.74,71.98,14.31z M69.83,11.45c0.35,0.17,1.53,0.07,1.48-0.35C70.44,11.35,69.96,10.87,69.83,11.45z M67.99,12.95c0.29,0.42,0.29,0.44,0.13,0.93c0.58-0.18,1.83-0.05,1.97-0.42c-0.82-0.19,0.51-0.63,0.64-0.87 C69.83,12.71,68.91,12.83,67.99,12.95z M68.03,11.37c-0.05,0.5,0.6,0.42,1.32,0.3C69.39,11.17,68.74,11.25,68.03,11.37z M67.54,9.71 c0.71,0.04-0.41,0.64,0.59,0.55c0.35-0.19,1.13-0.94,0.36-1.15C68.39,9.71,67.64,9.1,67.54,9.71z M65.87,10.58 c0.19,0.1,1.45,0.14,1.51-0.22c-0.5,0.07-0.38-0.38-1.05-0.17C66.35,10.4,65.91,10.4,65.87,10.58z M66.14,10.7 c-1.15-0.17-2.55,0.31-2.95,0.9C64.17,11,65.88,11.61,66.14,10.7z M62.17,16.65c0.19,0.14-0.62,0.69-0.13,0.81 c-0.05-0.36,0.68-0.05,0.54,0.23c0.69-0.53,2.66-0.48,2.32-1.45c-1.91,0.64-2.41,0.09-3.82-0.05 C60.73,16.96,62.02,16.32,62.17,16.65z M60.46,23.39c0.49-0.08,0.97-0.15,1.46-0.23c0.18-0.26,0.1-0.63,0.91-0.62 c0-0.8-1.91-0.13-2.49,0.08C61.29,23.17,60.81,22.81,60.46,23.39z M59.39,19.93c1-0.11-0.05,0.71,1.11,0.62 c0.47-0.28,0.48-0.75,0.84-1.08c-0.79,0.05-0.58,0.52-1.16,0.66C60.71,19.53,59.58,19.31,59.39,19.93z M56.77,14.83 c0.51,0.19,0.75,0.63,1.4,0.71c0.31-0.16-0.19-0.39,0.12-0.81C57.38,14.74,57.67,14.81,56.77,14.83z M53.29,23.99 c2.02,0.25,2.58-0.64,4.39-0.77C57.38,22.57,53.95,23.45,53.29,23.99z M54.09,21.46c-0.71,0.09-1.24,0.27-1.41,0.58 c0.2,0,0.31,0.08,0.3,0.26C53.56,22.11,53.81,21.77,54.09,21.46z M48.48,14.74c0.28,0.41,0.57,0.81,1.21,0.88 c-0.04-0.2,0.41-0.22,0.44-0.4C49.07,15.52,49.67,14.31,48.48,14.74z M49.84,17.81c-0.55-0.22-1.05-0.48-1.89-0.44 c0.07,0.26,0.04,0.49-0.13,0.66c0.56-0.14,1.24,0.53,1.55,0.02C48.11,17.72,49.85,18.01,49.84,17.81z M47.4,15.89 c0.03,0.15,0.06,0.31,0.09,0.46c0.69-0.37,0.96,0,1.19-0.55C48.09,15.99,48.08,15.63,47.4,15.89z M47.17,19.93 c0.83,0.11,2.61-0.62,2.83,0.08c0.2-0.25,0.79-0.36,0.9-0.65c0.04,0.27,0.26,0.36,0.58,0.37c-0.21-0.83,2.2-0.79,3.4-0.93 c-0.68-0.51,0.22-0.49,1.16-0.67c-0.33-0.43,1.22-0.82,0.34-1.01c-0.07,0.21-0.27,0.37-0.69,0.44c-0.03-0.21-0.17-0.32-0.33-0.42 c1.31-0.1-0.03-0.46,0.89-0.78c-0.29,0.02-0.31-0.2-0.33-0.42c-0.48-0.04-1.04-0.02-1.33-0.25c-0.14,0.48-0.34,0.24-0.97,0.33 c-0.17-0.38-0.55-0.87-1.69-0.81c0.05,0.7-1.33,1.13-1.63,0.94c0.14-0.64,1.12-0.41,1.41-0.74c-2.09-0.15-1.65,0.88-2.38,1.08 c0.24,0.31,1.04,0.49,0.46,1.03c0.45,0,1.43-0.46,1.52-0.13c-0.41,0.08-0.06,0.45-0.41,0.55c-0.34,0.07-0.56,0.03-0.78-0.01 c-0.02,0.32,0.39,0.24,0.58,0.37c-0.72,0.1-1.25,0.28-1.43,0.59c0.45,0.01,1.42-0.46,1.52-0.13C49.72,19.5,47.86,19.11,47.17,19.93z M50.62,23.23c0.59-0.06,0.56,0.45,1.31,0.23c0.41-0.37-0.31-0.48-0.63-0.67C51.34,23.04,50.63,22.99,50.62,23.23z M50.95,20.94 c-0.21,0.63-1.97,0.65-2.31,1.23c0.86,0.39,0.98-0.67,1.71-0.33C50.53,21.53,50.87,21.29,50.95,20.94z M41.15,17.21 c0.36,0.14,1.2-0.18,1.56-0.03C42.92,16.59,41.31,16.83,41.15,17.21z M39.8,17.04c0.34-0.08,0.57-0.05,0.78-0.02 c0.34-0.32,0.13-0.74-0.64-0.49C40.01,16.73,39.9,16.89,39.8,17.04z M38.76,18.24c0.27,0.15,1.66-0.34,0.93-0.53 c0.29-0.09,0.71-0.13,0.71-0.32c-0.33-0.11-0.92,0.03-1.53,0.19c0.04,0.21,0.19,0.31,0.36,0.4C39.04,18.05,38.73,18.09,38.76,18.24z M33.67,19c0.27,0.77,1.63-0.56,2.07-0.2c-0.29-0.42,0.12-0.62,0.02-0.97c-0.37,0.12-0.93,0.17-0.96,0.4 C36.01,18.01,34.65,19.01,33.67,19z M35.45,25.95c-0.29-0.27-0.94-0.18-1.6-0.05c-0.66,0.14-1.35,0.3-1.73,0.12 c-0.02,0.22-0.26,0.38-0.07,0.67C33.04,26.58,34.19,26.29,35.45,25.95z M35.52,23.2c-0.43-0.55-0.69-0.43-0.27-1.06 c-0.71,0.39-1.48-0.11-1.72,0.43c0.15-0.03,0.3-0.05,0.29,0.09c-0.18,0.08-0.48,0.12-0.45,0.27C34.15,22.96,34.45,23.48,35.52,23.2z M36.21,19.65c-0.81,0-1.82,0.2-2.8,0.38C33.8,20.68,35.18,19.99,36.21,19.65z M38.66,21.14c-0.29,0.04-0.32-0.18-0.35-0.4 c-0.66-0.05-0.75,0.27-1.02,0.09c0.27-0.15,0.52-0.3,0.67-0.49c-0.33,0.08-0.29-0.21-0.56-0.18c-0.3,0.42-0.63,0.83-1.3,1.13 c0.59-0.1,0.31,0.63,0.19,0.76C37.35,21.55,37.59,22.19,38.66,21.14z M37.12,26.5c0.34-0.03,0.51,0.1,1-0.09 c-0.28-0.47-2.11-0.15-1.64,0.57C36.96,26.91,36.9,26.66,37.12,26.5z M40.16,27.52c-1.22-0.05-2.06,0.44-3.14,0.61 C37.79,28.33,40.05,28.85,40.16,27.52z M41.08,26.03c-0.77,0.38-1.42-0.3-1.73,0.23c1.42-0.2,0.41,0.31,0.9,0.6 C40.41,26.54,41.09,26.41,41.08,26.03z M42.7,18.3c-1.41,0.08-3.28,0.6-4.79,0.77c0.34,0.41,0.95,0.57,1.28,0.99 c0.53-0.29,0.55-0.75,1.06-1.04C40.44,19.72,43.1,19.03,42.7,18.3z M47.02,16.61c-0.39-0.4-0.17-0.51,0.07-0.97 c-0.83,0.43-0.71,0.47-2.19,0.77c-0.6-0.26,0.23-0.87-0.66-0.66c0.14,0.61-0.84,0.83-1.03,1.33C44.75,16.67,45.87,16.66,47.02,16.61 z M49.55,24.22c-0.58,0.07-0.09-0.57,0.12-0.66c0.08,0.11,0.24,0.14,0.52,0.06c-0.01-0.65-1.23,0-1.22,0.23 c-0.34-0.55-2.15-0.1-2.7,0.4C48,23.85,48.73,24.69,49.55,24.22z M49.34,25.69c-0.41,0.18-1.09-0.24-1.21,0.25 c0.37-0.03,1.15,0.45,1.27,0.06C49.1,26.03,49.22,25.86,49.34,25.69z M49.71,28.81c-0.09-0.85,0.96-0.37,0.75-1.26 c-0.77,0.3-3.62,0-3.5,1.19C48.1,28.54,48.44,29.13,49.71,28.81z M52.22,28.96c0.45-0.15,1.02-0.25,0.87-0.64 c-0.84,0.47-0.55-0.05-1.26-0.08c-0.08,0.44-0.61,0.7-1.05,0.99c-0.28-0.16-0.49-0.39-0.84-0.47c-0.05,0.26-0.72,0.29-0.36,0.71 c1.19-0.33,1.65,0.28,1.4,0.84c1.01-0.37,1.23-0.19,2.12-0.56C53.14,29.18,52.19,29.53,52.22,28.96z M55.48,26.45 c-0.66-0.22-1.24-0.49-1.45,0.26c-0.25-0.73-0.27-0.55,0.05-1.12c-1,0.1-1.43-0.3-2.23,0.1c0.91,0.05,2.04,0.24,1.46,1.15 C54.12,26.93,55.22,26.58,55.48,26.45z M55.26,29.34c-0.42,0.07-0.74,0.17-0.93,0.33c-0.09,0.44,0.55,0.2,0.8,0.33 C55.16,29.78,55.42,29.64,55.26,29.34z M55.62,27.22c-0.16-0.02-1-0.22-0.96,0.17c0.15-0.02,0.29-0.03,0.27,0.11 c-0.18,0.07-0.48,0.1-0.45,0.24C54.88,27.92,55.48,27.55,55.62,27.22z M55.02,25.26c0.27,0.12,1.33-0.17,1.67-0.45 c-1.08-0.08-0.26-0.81-1.38-0.71c0.07,0.47,0.62,0.51,0.89,0.8c-0.46,0.05-1.68-0.12-1.94,0.34c0.19,0,0.48-0.08,0.51,0.07 c-0.66,0.44,0.49,0.73,0.89,0.8C55.83,25.48,54.99,25.77,55.02,25.26z M58.61,24.33c-0.89,0.33-1.13,0.04-1.41,0.56 c0.33-0.14,0.69,0.5,0.75,0.03c-0.15,0.02-0.29,0.03-0.27-0.11c0.33-0.06,0.54-0.02,0.76,0.03C58.4,24.62,58.5,24.48,58.61,24.33z M58.99,17.46c0.02-0.49-0.95-0.12-1.09-0.46c0.07,0.58-0.97,0.18-0.94,0.48c0.59-0.16-0.02,0.72,0.83,0.33 C57.57,16.91,58.14,17.79,58.99,17.46z M60.16,21.55c-0.49,0.13-0.02-0.45,0.17-0.5c0.58-0.15-0.02,0.72,0.81,0.35l-0.1-0.62 c-0.95,0.29-1.5,0.2-1.94,0.46C59.63,21.09,59.87,22.07,60.16,21.55z M64.11,24.4c-0.57-0.03-0.61-0.34-1.12-0.77 c-1.36,0.11-1.84,0.4-2.27-0.12c0.04,0.31-0.64,0.3-0.39,0.69c1.17,0.14,1.92-0.58,2.99,0c-0.18,0.06-0.48,0.08-0.46,0.23 C63.16,24.44,63.88,24.92,64.11,24.4z M64.75,18.63c-0.76,0.19-1.06-0.22-1.21,0.34C64.25,18.88,64.75,19.43,64.75,18.63z M65.76,22.11c0.03-0.31-0.38-0.26-0.56-0.39c0.34-0.14,1.29,0,1.2-0.33c-0.55-0.13-0.71,0.18-1.5,0.06 c0.1,0.29-0.23,0.38-0.15,0.65C65.22,21.99,65.33,22.19,65.76,22.11z M71.28,27.79c-1.76,0.01-3.17,0.61-4.61,0.5 c0.03,0.54-0.73,0.58,0.11,0.77c-0.66,0.66-0.78-0.04-1.66,0.4c0.5,0.7,1.45-0.01,2.5,0.27c0.32-0.43,1.27-0.58,1.31-1.14 c0.03,0.2,0.44,0.08,0.52,0.24c-0.52,0.1-0.46,0.46-0.37,0.84c0.56-0.08,1.12-0.16,1.68-0.24c-0.13-0.41-0.41-0.69-0.85-0.83 c0.56-0.03,0.2-0.48,0.66-0.56C70.59,28.48,72.3,27.83,71.28,27.79z M73.81,26.35c0.57-0.99,0.31-1.03,0.24-1.92 c-0.94,0.1-0.07,0.14-0.18,0.5c-0.94,0.25-3.76,0.82-2.04,1.37c-0.03-0.16,0.06-0.41,0.22-0.19c0.04,0.31-0.64,0.28-0.4,0.68 c0.56,0.11,1.52,0.77,2.25,0.17c-0.3-0.04-0.57-0.09-0.77-0.21c0.24-0.03,0.27-0.16,0.46-0.22c0.72,0.12,0.61,0.26,1.09,0.8 c0.02-0.33,1.07-0.18,0.91-0.59C75.02,26.58,74.24,26.62,73.81,26.35z M75.19,21.61c-1.56,0.05-2.43,0.43-3.13,0.88 c-0.47-0.52-0.84-0.97-0.19-1.39c-0.54-0.31-0.41-0.1-1.27-0.15c1.29,0.69-0.07,1.64-0.75,1.83c0.79,0.2,1.75,0.26,2.55,0.45 c0.58-0.34,0.69-0.81,2.37-0.94C74.54,21.89,75.22,21.92,75.19,21.61z M77.4,21.33c-0.04,0.54-1.38-0.07-1.21,0.31 c1.33,0.28-0.73,0.67,0.14,1.09c-0.94,0.09-0.72,0.73-1.11,1.08C76.83,23.26,77.87,22.15,77.4,21.33z M81.26,11.6 c1.6-0.2,0.54-0.14-0.04-0.31c0.76,0.05,2.03-0.39,1.2-0.61c-0.11,0.34-1.59,0.38-1.51,0.02c0.5-0.06,1-0.11,1.5-0.17 c-0.02-0.21-0.05-0.41-0.07-0.62c-3.3,0.39-8.11,0.44-10.73,1.46c3.01-0.5,6.18-0.7,7.52-0.78c-1.62,0.32-3.04,0.48-3.34,1.67 c0.94-0.35,1.49,0.01,1.96-0.56c-0.03,0.42,0.98,0,0.82,0.53c-0.93,0.13-0.69,0.26-1.49,0.18c0.63,0.71,0.32,0.52-0.37,1.15 c0.77-0.11,0.77,0.4,1.78,0.09c0.2-0.32-0.81-0.43-0.07-0.62c0.28,0.11,0.14,0.56,0.8,0.38c-0.11-1.03,1.13-0.76,2.42-0.91 C82.13,12.11,81.24,12.08,81.26,11.6z M87.69,17.48c0-0.39-0.03-0.76-0.58-0.72c-0.91,0.72-1.99,0.41-2.69,0.6 c0.04-0.23,0.52-0.24,0.71-0.39c0.27-0.73-1.48,0.16-1.54-0.3c0.92,0,0.91-0.45,1.7-0.5c-0.27-0.43-0.27-0.45-0.1-0.93 c-1.22,0.04-1.09,0.75-1.89,1c-0.09-0.55-1.04-0.41-1.58-0.6c0.63,0.78-0.62,1.5,0.75,2.11c-0.24-0.36-0.53-0.84,0.39-0.99 c-0.16,0.41-0.23,0.87-0.09,1.42C84.95,17.67,85.11,17.45,87.69,17.48z M88.04,13.68c-0.04,0.32-0.46,0.47-0.68,0.7 C88.03,14.82,89.2,13.7,88.04,13.68z M88.94,12.64c-0.06,0.1-0.56,0.66,0.06,0.62c0.02-0.19,0.37-0.21,0.73-0.23 C89.87,12.59,89.19,12.78,88.94,12.64z M96.57,13.47c0.62-0.22,0.93,0.59,1.26,0.05c-0.65,0.11,0.16-0.89-0.8-0.56 C97.13,13.26,96.71,13.3,96.57,13.47z M91.67,12.21c-0.78-0.04-0.9,0.25-1.49,0.3C90.18,13.14,92.15,12.99,91.67,12.21z M100.28,15.82c-0.14-1.49-2.57,0.47-4.74,0.1c0.17-0.52-0.43-0.44-0.57-0.73c0.54-0.18,0.93-0.42,1.71-0.47 c-0.4-0.33,0.03-0.68-0.32-0.76c-0.03,0.23-0.59,0.19-0.98,0.24c-0.03-0.21,0.08-0.35,0.2-0.49c-0.75-0.03-0.8-0.61-1.8-0.45 c0.23,0.46-0.2,0.59-0.16,0.96c0.59-0.21,0.89,0.62,0.56,0.57c-0.81-0.16-1.54,0.09-1.69,0.63c0.75-0.31,1.37-0.09,1.78,0.3 c-0.32,0.19-0.73,0.33-0.95,0.56C95.73,16.91,96.96,15.65,100.28,15.82z M102.38,17.21c-0.01-0.16,0.19-0.2,0.23-0.33 c-0.34,0.03-0.55-0.03-0.76-0.1c0.32,0.47-0.36,0.4-0.44,0.66c0.3-0.01,0.59,0,0.52,0.27c0.41-0.03,0.82-0.06,1.24-0.09 C103.22,16.98,102.5,17.83,102.38,17.21z M94.13,24.68c-0.02,0.18-0.37,0.21-0.72,0.23l0.03,0.31c0.07,0.12,0.22,0.16,0.5,0.11 C94.16,25.26,94.52,24.57,94.13,24.68z M90.77,27.99c-0.33-0.46,0.34-0.42,0.42-0.67c-0.8,0.09-1.73,0.12-1.65,0.65 C89.53,28.3,90.41,27.94,90.77,27.99z M94.38,27.32c-1.27,0.12-2.94-0.19-3.36,0.64C91.68,28.03,93.77,27.75,94.38,27.32z M98.39,22.87c-1.75-0.23-0.48,0.7-1.96,0.17c-0.05,0.37-0.19,0.69-0.66,0.85c-0.06-0.18-0.4-0.13-0.75-0.08 c0.27,0.51,1.64,0.16,2.25,0.42C97.18,23.52,98.76,23.71,98.39,22.87z M100.23,24.13c-1.41,0.42-0.72-0.78-1.78-0.63 c-0.42,0.56,1.65,0.78,0.12,1.4C99.43,24.8,100.1,24.61,100.23,24.13z M102.38,23.48c-0.06-0.23,0.04-0.58-0.29-0.6 c0.02,0.82-0.88,0.12-1.21,0.26c-0.04-0.41,0.75-0.4,0.67-0.84c-0.61,0.03-1.18,0.08-1.45,0.28c-0.02,0.56,0.78,0.51,0.82,1.03 C101.4,23.56,101.89,23.52,102.38,23.48z M106.17,14.58c-0.7,0.08-1.72-0.01-1.72,0.44C105.16,14.63,105.91,15.2,106.17,14.58z M106.71,11.41c-0.67,0.15-2-0.05-2.24,0.32c1.2,0.19-0.12,0.56-0.44,0.82c0.75,0.32,1.67,0.52,2.8,0.58 C107.2,12.28,105.8,12.24,106.71,11.41z M110.47,6.96c-0.11-0.36-0.2-0.72-1.05-0.56C109.48,6.79,109.82,6.98,110.47,6.96z M110.88,5.37c-0.52-0.08-1.06-0.41-0.56-0.75c-0.91,0.25-2.03-0.19-2.29,0.14c0.36,0.02,0.31,0.32,0.54,0.44 c0.44,0.04,0.64-0.27,0.76-0.05c0.05,0.28-0.23,0.38-0.74,0.36l0.04,0.62C109.74,5.49,109.97,6.12,110.88,5.37z M125.04,10.88 c0.65,0.16,1.38,0.26,1.77,0.59c-0.29,0.08-0.56,0.18-0.75,0.33c1.22,0.02,1.18,0.45,2.01,0.12c0.3-0.51-0.81-0.1-0.51-0.61 c0.69,0.11,1.41,1.23,2.01,0.44c-1.09-0.35-1.78-0.69-2.52-0.89c0.25,0,0.3-0.13,0.5-0.17c0.38,0.24,1.43,0.2,1.25-0.34 C127.08,10.62,125.82,10.05,125.04,10.88z M121.4,7.08c0.71-0.26,1.29,0.16,1.51-0.52c-0.45-0.02-1.27,0.2-1.03-0.28 c0.37-0.1,1.32,0.14,1.27-0.2c-0.31-0.17-0.91-0.15-1.53-0.1C121.64,6.45,120.9,6.8,121.4,7.08z M120.92,8.04 c0.34,0.3,2.77-0.11,1.5-0.52C122.56,8.05,121.06,7.65,120.92,8.04z M118.35,7.19c0.39-0.45,1.15,0.18,2.03-0.07 c0-0.29-0.21-0.32-0.51-0.14c-0.01-0.26-0.02-0.52-0.03-0.78c-0.45,0.11-1.07-0.42-1.27,0.04c0.16,0.21,0.98-0.01,1.03,0.28 c-0.34,0.01-0.22,0.28-0.5,0.33C118.93,6.33,117.32,7.02,118.35,7.19z M117.88,8.14c0.35-0.02,0.56,0.05,0.77,0.13 c0.13-0.33,0.51-0.52,0.73-0.81c-0.59,0.07-0.97,0.01-1.27-0.11C118.2,7.71,118.09,7.95,117.88,8.14z M115.58,7.63 c0.01,0.64,0.86,0.7,0.58,1.54c1.52-0.2,1.45-1.29,1.44-1.63c-0.01,0.1-0.03,0.19-0.24,0.17C116.49,7.86,116.38,7.51,115.58,7.63z M115.06,7.34c0.24-0.71-3.02-0.53-3.05-0.01C113.48,7.27,113.97,7.03,115.06,7.34z M113.71,24.75c-0.48,0.02-0.97,0.05-1.45,0.08 c-0.04,0.46,0.09,0.53,0.5,0.28c0.07,0.27-0.2,0.79,0.52,0.6C112.89,25.24,113.24,25.07,113.71,24.75z M119.78,24.47 c-0.61-0.11-2.07,0.38-1.95-0.24c1.09-0.03,1.75-0.22,3.14-0.43c0.05-0.32-0.97-0.69-0.99-0.43c0.25,0.01-0.84,0.5-1.22,0.04 c-0.01-0.31,0.66-0.22,0.46-0.64c-0.95,0.14-2.52,0.76-2.12,1.66c-0.62,0.17-1.67,0.12-2.44-0.04c0.36,1.15-0.5,0.65-0.91,1.29 c0.84,0.25,2.37-0.12,2.91-0.14c-0.29-0.06-0.55-0.14-0.74-0.28c0.6-0.01,0.74-0.28,1.2-0.37c0.78,0.44,0.97,0.29,2.2,0.37 C119.41,24.97,120,24.96,119.78,24.47z M122.21,24.7c-1.1,0.18-1.38-0.21-2.19-0.24C119.96,25.49,121.64,25.17,122.21,24.7z M124.28,20.42c-0.63,0.03-1.17,0.12-1.46,0.36C123.44,21.15,123.95,20.67,124.28,20.42z M125.74,19.93 c-0.37-0.18-1.01-0.17-1.24-0.44c-0.08-0.36,0.71-0.19,0.73-0.48c-0.29-0.02-0.69,0.04-0.74-0.14c0.45-0.19,0.82-0.42,1.22-0.65 c-1.24-0.08-1.15-0.08-2.47-0.1c-0.58,0.72-1.26,0.77-1.93,1.16c1.35-0.1,0.41,0.33,0.02,0.47c0.65,0.2,1.5,0.41,2.31,0.49 C124.45,20.31,125.23,20.26,125.74,19.93z M130.18,22.98c-0.66-0.41-0.75-1.2-1.72-1.39c-0.32,0.61,0.14,0.81-0.23,1.25 C128.82,22.93,129.35,23.04,130.18,22.98z M142.65,19.52c-0.69-0.2-1.04-0.06-1.72,0.1c-0.34-0.46-1.38-0.49-2.93-0.52 c-0.42,0.09,0.01,0.74-0.5,0.77c-0.36-0.09-1.27,0.17-1.22-0.17c0.36-0.13,0.78-0.22,0.74-0.61c-0.99-0.17-2.65-0.58-2.94,0.13 c-0.45-0.66,1.3-0.73,0.74-0.94c-0.53,0.28-1.61-0.03-0.99,0.63c-0.65,0-1.45,0.09-1.47-0.31c0.95-0.27-0.55-1.08,0-1.09 c0.57-0.05,0.27,0.45,0.74,0.47c0.45-0.41-0.11-0.47,0.24-0.94c-0.79,0.14-0.34-0.51-0.99-0.46c-0.24,0.88-2.52,0.24-2.71,0.79 c-0.39-0.81-1.91-0.7-2.97-0.26c-0.59-0.29-1.37-0.47-2.24-0.58c-0.03,0.18,0.05,0.44-0.23,0.47c-0.04-0.4-0.84-0.29-1.49-0.27 c0.42,0.52-0.02,0.47-0.47,0.8c0.64,0.81,2.01-0.12,2.72,0.08c0,0.26-0.68,0.1-0.73,0.33c1.96,0.2,3.12-0.35,4.18-0.7 c0.44,0.75,1.8,0.06,2.23,0.92c-0.92-0.01-1.7,0.07-2.21,0.33c0.37,0.13,0.36,0.5,0.5,0.77c-0.78-0.24-1.47,0.7-2.69,0.68 c1.04,0.24,2.13,0.04,2.94-0.53c0.01,0.21-0.11,0.35-0.24,0.47c1.01-0.14,1.26,0.23,2.21,0.14c0.22-0.66-1.38-0.15-1.23-0.78 c0.41,0,0.81,0,1.22,0c0.07,1.1,2.33,0.8,3.19,1.4c-0.31,0.22-1.29,0.01-0.98,0.63c1.13,0.13,0.26-0.25,0.73-0.31 c0.24,0,0.49,0,0.73,0c0.19-0.48-0.67-0.3-0.48-0.78c0.75,0.11,0.89-0.15,1.47-0.15c0,0.16,0,0.31,0,0.47 c1.73-0.6,3.43-0.11,4.9-0.39c-0.19-0.04-0.48-0.02-0.49-0.17c0.42,0.02,0.76-0.01,0.98-0.13c-0.02,0.2-0.32,0.21-0.25,0.46 C141.86,20.26,142.08,19.77,142.65,19.52z M135.31,17.35c-0.79,0.12-0.94-0.14-1.23-0.32c-0.01,0.1-0.04,0.19-0.25,0.16 c0,0.16-0.2,0.19-0.25,0.31c1.01,0.38,2.86-0.03,3.16,0.56c0.14-0.56,2.38-0.23,2.02-0.51c-1.18,0.24-1.59-0.4-0.98-0.79 c-0.75-0.14-1.26-0.03-1.48-0.18c-0.04-0.34,0.88-0.06,1.24-0.14c0.05-0.34-0.2-0.5-0.74-0.48c0.17,0.78-0.91-0.22-1,0.3 C136.1,16.76,135.66,16.75,135.31,17.35z M139.26,17.25c1.09-0.19,2.3,0.46,2.47-0.1C140.82,16.91,139.79,16.92,139.26,17.25z M140.51,16.64c0.62,0.05,0.61-0.33,1-0.44c-0.33-0.06-0.47-0.24-0.99-0.19C140.54,16.44,140.11,16.32,140.51,16.64z M143.2,9.86 c-2.37-0.06-3.06,0.09-4.04-0.26c-0.35,0.35,0.64,0.6-0.01,0.62c-0.97,0.22-0.04-0.7-1-0.48c-0.15,0.37-0.32,0.7-1.01,0.14 c-0.93,0.46-2.22,0.67-3.03,1.22c0.03,0.47,1.31,1.04,0.25,1.25c-0.04-0.23,0.09-0.57-0.25-0.62c-0.07,0.32-0.93,0.15-1,0.47 c0.44,0.04,0.57,0.27,0.5,0.62c-1.33,0.33-2.11,0.24-3.75,0.17c0.21,1.25,2.5,0.25,3.75,0.3c0,0.21,0,0.41,0,0.62 c-0.77,0.11-0.48,0.11-1.25,0c-0.03,0.83,1.52,0.34,1.74-0.01c0.02,0.27-0.06,0.49-0.25,0.63c1.22,0.19,2.81-0.15,4.23,0.2 c0.11-0.3,0.54-0.39,0.51-0.77c-1.2-0.33-0.15-0.24-1.49-0.33c0.48-0.33,0.95-0.56,1.01-0.77c0.48,0.07,0.45,0.45,1.25,0.33 c-0.34-0.5,0.64-0.93,0.02-1.09c-0.42,0.44-1.21-1-0.99-0.95c0.32,0.07,0.51,0.21,0.5,0.47C140.65,10.96,141.25,10.1,143.2,9.86z M154.16,5.24c-0.66-0.03-1.33-0.06-1.31,0.38c0.65-0.16,1.22,0.44,1.28,0.09C153.7,5.61,154.19,5.51,154.16,5.24z M164.89,6.96 c-0.43-0.05-0.1-0.45-0.47-0.52c-0.81-0.05-2.61,0.22-3.64,0.12c0.01-0.4-0.42-0.59-0.7-0.85c-0.31,0.16-0.34,0.52-0.34,0.91 C162.36,6.69,163.05,7.3,164.89,6.96z M163.26,28.76c-0.33,0.6,0.64,0.85,1.12,0.6C164.54,28.89,163.93,28.81,163.26,28.76z M164.92,26.75c-0.91-0.02-1.14,0.09-1.64-0.34c-0.33,0.17-0.37,0.54-0.08,0.78c0.58,0.09,0.76-0.16,1.22-0.18 c0.04,0.13-0.03,0.31,0.2,0.34C164.71,27.15,164.98,27.09,164.92,26.75z M164.88,31.15c0.11,0.44-1.09-0.24-0.97,0.2 C164.33,31.84,166.04,31.51,164.88,31.15z M167.03,30.94c-0.74-0.03-0.47-0.55-1.36-0.48C165.6,31.1,166.49,31.24,167.03,30.94z M193.37,6.24c0.38,0.13,0.79,0.16,0.87-0.08c-0.82-0.08-0.7-0.45-1.53-0.51C192.65,5.87,192.99,6.11,193.37,6.24z M185.04,3.29 c0.7,0.2,2.3,1.11,2.39,0.29C186.27,3.7,186,3.11,185.04,3.29z M181.13,2.43c0.6,0.17,1.85,0.07,1.13-0.29 c-0.25,0.42-0.53-0.24-1.05-0.18L181.13,2.43z M179.55,2.17c0.67,0.14,1.94-0.13,1.18-0.6C180.84,2.18,179.32,1.45,179.55,2.17z M167.7,27.56c-0.23-0.03-0.47-0.06-0.71-0.1c0.04-0.2,0.33-0.17,0.29-0.43c-0.5,0.02-1.53-0.37-1.68-0.04 C166.32,27.08,166.82,28.01,167.7,27.56z M169.35,7.74c0.47,0.11,0.86,0.15,0.95-0.3c-1.24-0.3-3.26-0.84-5.13-0.6 c-0.05,0.27,0,0.49,0.19,0.65c1.4,0.01,1.8-0.62,2.89-0.3c0.01,0.16-1.15,0.19-0.32,0.43C168.32,7.46,168.88,7.63,169.35,7.74z M169.1,29.64c0.74,0.05-0.65,0.37,0.17,0.5c0.07-0.22,0.58-0.06,0.95-0.03C170.56,29.69,169.33,29.31,169.1,29.64z M171.02,27.86 c-0.27-0.25-1.12-0.4-1.2-0.01C170.14,28.14,170.76,28.1,171.02,27.86z M171.92,31.45c-0.14-0.16-1.24-0.52-1.39-0.2 c1.02,0.34-0.47,0.39,0.12,0.8C171.53,32.27,171.29,31.46,171.92,31.45z M172.78,30.49c-0.28-0.76-1.33-0.38-2.03-0.77 C171.23,30.6,171.93,30.18,172.78,30.49z M174.42,30.59c-1.01-0.05-1.73,0.17-2.43,0.4C173.09,31.12,174,31.08,174.42,30.59z M185.84,6.14c-1.35-0.19-4.17-0.46-4.53-1.63c-0.35,0.53-1.45,0.43-2,0.78c-0.41-0.36-0.84,0.08-0.99-0.47 c0.15-0.28,1.03,0.04,0.88-0.49c0.03-0.4-0.28-0.66-0.94-0.79c-0.38,0.44,0.35,0.44,0.42,0.7c-1.11-0.42-2.61,0.35-3.72-0.11 c-0.4,0.34,0.96,0.63,0.17,0.65c-0.77-0.33-1.01-0.11-1.6,0.1c0.86,0.13,1.59,0.25,2.14,0.28c0.55,0.04,0.92-0.03,1.05-0.29 c-0.2,0.64,4.31,1.42,5.74,0.79C182.63,6.3,186.53,6.81,185.84,6.14z M191.92,37.72c-0.38,0.51-2.07,0.39-2.53-0.3 c-0.98,0.88-2.47,0.03-3.88,0.53c1-0.05,2.65,0.24,4.04,0.33C190.94,38.37,192.04,38.33,191.92,37.72z M195.69,8.11 c-1.73-0.08-2.72-0.59-4.23-0.49C192.86,8.16,194.57,8.54,195.69,8.11z M196.9,8.73c-0.95-0.17-1.67-0.12-2.42-0.1 C195.65,9,196.36,8.95,196.9,8.73z M199.94,9.65c-0.93-0.37-1.59-0.64-2.12-0.22C198.44,9.98,199.32,9.65,199.94,9.65z M204.58,8.8 c-1.15-0.17-2.35-1.27-2.84-0.77C202.96,8.19,203.95,9.34,204.58,8.8z M210.02,10.25c-0.64-0.35-1.46-0.67-1.92-1.07 c-0.61,0.15-0.19,0.38,0.08,0.68c-0.31-0.07-0.35,0.15-0.39,0.37C208.93,10.66,209.26,10.23,210.02,10.25z M212.4,12.49l-0.76-0.25 c0.05-0.15,0.1-0.3,0.14-0.45c-0.39-0.1-0.92-0.36-1.06-0.19c0.19,0.1,0.26,0.22,0.16,0.38C211.58,12.04,211.94,12.83,212.4,12.49z M215.92,40.16c-0.68-0.25-1.21-0.88-1.79-0.55c0.2,0.31,0.94,0.61,1.3,0.52c-0.04,0.19-0.07,0.37,0.32,0.46L215.92,40.16z M216.25,12.78c-1.91-1.07-3.53-1.52-5.01-2.81c0.47,1.52,4.41,2.3,4.96,3.78C216.15,13.23,215.61,13.16,216.25,12.78z M217.86,13.85c-0.34-0.12-0.67-0.24-1.01-0.37c-0.09,0.25-0.17,0.49-0.26,0.74c0.33,0.12,0.67,0.24,1,0.37 C217.69,14.34,217.77,14.1,217.86,13.85z M223.09,18.15c-0.62-0.37-1.5-0.93-2.28-0.73C221.74,17.87,222.53,18.7,223.09,18.15z M237.7,26.38c-0.07-1.2-2.46-2.11-3.57-1.74C235.12,25.39,236.58,26.71,237.7,26.38z M135.48,27.5c0.14,0.03,0.28,0.04,0.41,0.05 C135.81,27.49,135.7,27.47,135.48,27.5z M139.78,27.4c-1.75-0.58-2.6,0.22-3.89,0.15c0.15,0.11,0.13,0.33,0.3,0.43 c1.3,0.06,1.67-0.24,2.38,0.19C138.43,27.54,139.98,28.06,139.78,27.4z M134.84,13.44c-0.17,0.47-0.53-0.15-1,0 c-0.07,0.57,1.09,0.35,1.49,0.63C135.3,13.78,135.17,13.55,134.84,13.44z M213.36,44.69c0.8-0.44,0.3,0.34-0.17,0.43l0.84,0.34 c0.05-0.93,1.95-0.29,2.9-0.5c-1.17-0.41-1.68-0.18-2.59-0.89C214.26,44.52,212.67,43.86,213.36,44.69z M168.11,33.45 c0.05,0.82,1.25,0.22,2,0.75C170.21,33.3,168.58,33.81,168.11,33.45z M163.54,32.57c0.58,0.14,1.77,0.72,2.29,0.42 C165.04,32.95,163.98,32.3,163.54,32.57z M160.47,30.5c0.52,0.72,1.9,0.16,2.32,0.41c0.43-0.61-1.2-0.16-1.12-0.6 c0.79-0.17,0.89,0.14,1.86,0.21c0.33-0.7-0.91,0.21-0.65-0.55c-0.99-0.42-1.36,0.53-1.67,0.12C161.83,29.84,160.5,30.24,160.47,30.5 z M159.28,30.55c1.17,0.22,0.52-0.36,0.3-0.6c1.39,0.17-0.3-0.74,0.81-1.02c-2.02-0.51-2.34-0.48-4.03-0.06 c0.34-0.43,0.27-0.75-0.4-0.98c-0.32,0.18-0.35,0.55-0.06,0.78c-0.68,0.11-1,0.09-1.65-0.12c0.12,0.58,2.02,0.94,2.29,0.96 c-0.5-0.15,0.49-0.48,0.76-0.56c0.12,0.48,0.22,0.79-0.08,0.93c-1.58-0.59-2.38,0.02-3.29-0.26c0.77,0.29-1.39,0.55-0.31,1.07 c0.08-0.22,0.53-0.14,0.73-0.26c-0.51,0.28,0.22,0.37,0.42,0.66c0.25-0.51,0.44-0.05,1.18-0.07c0.01-0.43,0.41-0.28,0.05-0.62 c1.22,0.25,0.06-0.38,0.97-0.38c0.82,0.51,1.64,0.09,1.8,0.95c-0.16,0.2-0.9-0.06-0.96,0.23c0.76-0.07,0.45,0.45,0.89,0.55 c0.26-0.33,1.2-0.28,1.15,0.26c-0.89,0.24-2.76-0.66-3.72-0.34c0.55,0.05,0.66,0.33,1.38,0.28c-0.56,0.3,0.1,0.7,0.38,0.97 c-0.01-0.34,0.83,0.01,1.17-0.05c0.13-0.63-0.32,0-0.91-0.24c0.06-0.23-0.03-0.58,0.29-0.6c1.03,0.36,1.48,0.55,2.53,0.54 c0.01,0.19,0.03,0.38,0.43,0.36C161.85,31.59,159.56,31.82,159.28,30.55z M160.14,31.42c0.62,0.05,1.37,0.22,1.43-0.17 C161.09,31.27,159.98,30.84,160.14,31.42z M173.88,38.25c-0.38-0.42-1.49,0.06-1.99-0.48C171.63,38.29,173.67,38.43,173.88,38.25z M194.73,39.6c0.52,0.02,1.22,0.23,1.45-0.1C195.51,39.34,194.83,39.13,194.73,39.6z M180.19,40.36c0.23,0.04,0.58,0.11,1.07,0.2 c0.63,0.13-0.33-0.07-0.98-0.18C180.25,40.37,180.22,40.36,180.19,40.36z M180.19,40.36C179.53,40.24,179.76,40.29,180.19,40.36 L180.19,40.36z M210.68,43.47c-0.21,0.18,0.15,0.35,0.57,0.45c0.42,0.1,0.91,0.13,0.97-0.02C211.65,43.67,211.03,43.36,210.68,43.47 z M90.09,18.95c-0.6,0.52,0.31,0.87,0.16,1.55c0.92-0.58,3.52-0.15,2.85-1.38C92.19,19.41,91.44,19.11,90.09,18.95z M220.55,15.83 c0.36,0.13,0.77,0.28,1.14,0.41c0.36,0.15,0.67,0.31,0.8,0.49c0.48-0.07,0.14-0.72-0.46-1.02c-0.45,0.29-1.85-0.54-2.42-0.39 c0.5,0.23,0.35,0.57,0.53,0.86c0.4,0.05,1.23,0.64,1.31,0.31C221.02,16.29,220.14,16.18,220.55,15.83z M128.51,7.07 c-0.46,0.45-1.57,0.52-1.76,1.13c0.87-0.48,0.83-0.24,1.52-0.34C127.44,7.74,129.51,7.28,128.51,7.07z M244.98,45.16 c0.53,0.37,0.8,0.24,0.96-0.14c-0.35-0.12-0.99-0.82-1.13-0.51c0.27,0.23,0.25,0.37,0.63,0.38 C245.33,45.08,245.15,45.13,244.98,45.16z M131.82,7.83c0.24-0.13,0.54-1,0-1.09C131.86,7.2,130.85,7.69,131.82,7.83z M132.84,7.67 c-0.02,0.25,0.03,0.54-0.51,0.47c-0.15,0.42,1.04,0.79,1.27,0.46C133.02,8.28,133.95,7.8,132.84,7.67z M76.87,8.82 c0.39-0.32,0.85,0.03,1.75-0.21c-0.11-0.42-0.85-0.35-1.1-0.65C78.14,8.53,76.12,8.65,76.87,8.82z M250.58,39.67 c-0.13,0.17-0.09,0.35-0.04,0.54c0.63,0.51,0.98,0.42,1.33,0.32C251.71,40.16,250.97,39.67,250.58,39.67z M248.41,40.68 c0.53,0.54-0.55,0.25-0.9,0c0.1,0.75,0.06,0.81-0.66,1.06c0.95,0.73,1.66,0.65,2,0.27C249.18,41.62,249.12,40.97,248.41,40.68z M91.83,21.45c0.28,0.08,0.15,1.13,1.34,0.97c0-0.65-0.38-0.57-0.11-1.09C92.63,21.46,92,20.97,91.83,21.45z M243.26,43.75 c0.07-0.45,0.93,0.7,1,0.25c-0.36-0.3-0.35-0.61-0.89-0.91C243.43,43.58,243.01,43.44,243.26,43.75z M247.53,42.52 c-1.09-0.93-2.21-0.32-2.94-1.44c-0.74,0.54,0.34,1.06,0.49,1.58c-0.56-0.34-1.2-0.84-1.43-0.51c0.68,0.56-0.04,0.62-0.4,0.67 c1.62,1.19,2.61-0.06,2.7,1.28C246.41,43.01,247.3,43.03,247.53,42.52z M86.35,7.27c0.33-0.03,0.26,0.25,0.53,0.26 c0.05-0.32,0.65-0.38,0.69-0.7C86.95,6.87,86.35,6.92,86.35,7.27z M96.07,19c-0.97,0.4-1.2-0.6-1.74,0.01 C94.77,19.38,95.52,19.48,96.07,19z M31.9,29c0.77-0.13,0.92-0.46,1.07-0.78c-0.33,0.04-0.51-0.09-0.99,0.11 C32.1,28.6,31.79,28.74,31.9,29z M90.81,21.08c0.54-0.64,2.37,0.18,2.43-0.55C92.61,20.51,90.08,20.48,90.81,21.08z M147.84,28.48 c0.27-0.57,0.55,0.85,0.94,0.2c-0.14-0.02-0.28-0.04-0.23-0.17c0.41,0.03,0.61-0.09,0.73-0.28 C148.38,28.07,147.47,28.07,147.84,28.48z M44.81,10.85c-0.29-0.24-2.1,0.58-1.18,0.72C43.73,11.23,44.8,11.23,44.81,10.85z M55.14,11.31c1.74,0.3,1.99-0.83,2.63-1.39c-1.24,0.34-1.16-0.31-2.05,0.19C56.07,10.85,56.15,10.92,55.14,11.31z M50.92,11.1 c-0.76,0.19-2,0.2-1.97,0.69c0.92-0.03,1.23-0.64,1.55-0.13c-0.5,0.09-1.01,0.19-1.52,0.29c0.15,0.25-0.3,0.46,0.09,0.46 c0.36-0.59,1.19-0.45,1.54-0.13C50.25,11.7,51.29,11.66,50.92,11.1z M47.11,13.09c0.49-0.43-0.41-0.39-0.43-0.87 c0.32-0.46,2.6-0.92,2.42-1.09c-0.75,0.24-2.23,0.21-2.51,0.64C46.67,11.9,45.63,12.95,47.11,13.09z M49.06,35.32 c0.64-0.12,0.42-0.35,0.93-0.19l-0.06-0.31C49.71,34.47,48.74,34.98,49.06,35.32z M64.5,34.93c-1.59,0.2-3,0.46-3.7,1.06 C62.28,35.87,63.49,35.7,64.5,34.93z M57.52,36.55c0.8-0.22,2.26-0.15,2.29-0.71C58.7,35.87,58.01,35.89,57.52,36.55z M54.97,34.48 c0.01-0.33,1.03-0.23,0.86-0.64c-0.34-0.1-0.9,0.01-1.23-0.09c0.75,0.48-1.39,1.28-0.12,1.93c0.53-0.61,1.39-0.53,2.02-0.85 C56.04,34.65,55.37,34.69,54.97,34.48z M55.77,36.23c-0.21-1.01-0.33,0.25-0.38,0.55l1.17-0.22C56.82,35.95,55.75,36.62,55.77,36.23 z M65.28,33.7c-0.01,0.52-1.29,0.93-1.82,0.76c0.72,0.51,3.05-0.01,3.79-0.58C65.96,34.11,65.27,34.23,65.28,33.7z M72.94,32.92 c-0.91,0.34-2.32,0.45-2.25,1.25c0.78-0.45,1.41-0.94,2.21-0.69C72.64,33.27,72.85,33.01,72.94,32.92z M76.8,28.49 c0.36,0.35-0.06,0.5,0.32,0.59c0.28-0.51,2.4-0.71,2.87-0.67c-0.16-0.52-0.68-0.12-0.33-0.75C78.3,27.74,77.56,28.12,76.8,28.49z M72.91,33.48c0.08,0.06,0.21,0.13,0.4,0.18C73.17,33.58,73.04,33.52,72.91,33.48z M53.03,37.07c0.04,0.39,0.59,0.27,0.82,0.48 c-0.14-0.34,0.64-0.3,0.61-0.59C54.15,36.83,53.61,36.94,53.03,37.07z M72.94,32.92c0,0,0.01,0,0.01,0 C73.01,32.88,72.99,32.88,72.94,32.92z M44.35,38.1C44.35,38.1,44.35,38.1,44.35,38.1C44.35,38.1,44.35,38.1,44.35,38.1 C44.35,38.1,44.35,38.1,44.35,38.1z M51.66,34.94c0.39-0.07,0.78-0.15,1.17-0.22c-0.07-0.26-0.04-0.49,0.12-0.66 c-0.39,0.07-0.78,0.15-1.18,0.22C51.84,34.55,51.81,34.77,51.66,34.94z M44.35,38.1c-0.48,0.75-2.2,0.39-2.37,1.18 c1.76-0.51,2.64-0.15,3.65-0.84C44.89,38.65,44.49,38.51,44.35,38.1z M80.5,28.5c0.73-0.18,1.2-0.49,1.1-1.07 c-0.6-0.05-1.19,0.01-1.68,0.36C80.71,27.53,80.35,28.22,80.5,28.5z M45.39,37.38c0.05,0.39-0.77,0.22-0.92,0.21 c0.01,0.21-0.04,0.38-0.12,0.51C45.1,38.09,45.91,37.41,45.39,37.38z M43.35,34.8c0.46-0.04,0.32,0.55,1.03,0.25 c0.73-0.62,1.13-0.92,1.76-1.05c-0.26-0.05,0.12-0.76-0.41-0.54c-0.01,0.25-0.49,0.22-0.7,0.16C45.7,34.47,43.66,34.31,43.35,34.8z M46.34,33.96c-0.07,0.01-0.13,0.02-0.19,0.03C46.19,34.01,46.25,34,46.34,33.96z M46.17,35.44c-0.23,0.05-0.46,0.11-0.69,0.16 c-0.01,0.57,0.37,0.74,0.89,0.76C46.01,35.93,46.27,36.01,46.17,35.44z M49.83,33.08c0.2,0,1.95-0.21,1.41-0.29 c-0.49,0.09-1.05-0.65-1.27-0.22c0.14-0.02,0.28-0.04,0.26,0.1C49.95,32.76,49.69,32.84,49.83,33.08z M41.35,34.61 c0.01,0.5,0.61,0.37,1.27,0.19C42.43,34.45,41.66,34.29,41.35,34.61z M46.35,38.44c1.38-0.19,2.37-0.33,3.32-0.51 c0.96-0.17,1.88-0.36,3.2-0.51c-1.17-0.41-2.46-0.04-3.25-0.62C49.62,38.26,47.13,37.59,46.35,38.44z M110.33,29.17 c-1,0.09-2,0.18-2.43-0.16c-0.28,0.68-0.79,0.3-1.4,0.73c0-0.09-0.21-0.16-0.24,0.02c0.74,0.46,1.94,0.14,2.68,0.28 C108.52,29.18,110.34,30.03,110.33,29.17z M121.08,26.93c0.61,0.28,1.38,0.64,1.68-0.06C122.01,27.11,121.3,26.53,121.08,26.93z M126.58,25.53c0.69,0.02,1.22-0.06,1.44-0.34C127.53,25.29,126.34,24.97,126.58,25.53z M120.33,26.17 c0.67,0.49-0.64,0.47,0.03,0.78c0.26-0.25,0.77-0.35,0.69-0.8C120.81,26.16,120.56,26.17,120.33,26.17z M110.16,30.28 c0.39,0.17,1.59-0.11,1.4-0.71C110.81,29.64,110.14,29.77,110.16,30.28z M116.95,26.47c-4.25,0.03,1.26,0.02,0.24-0.01 C117.11,26.45,117.03,26.47,116.95,26.47z M131.17,27.19c1.01,0.62-0.53,0.33-0.23,0.62c0.49-0.09,1.57,0.19,1.67-0.16 c-0.13,0.01-0.27-0.14,0-0.16C135.81,27.33,132.11,27.11,131.17,27.19z M135.7,29.84c-0.34,0.08-1.22-0.2-1.18,0.14 c0.98-0.12,0.44,0.75,1.41,0.64C136.03,30.25,135.5,30.28,135.7,29.84z M132.85,29.21c-0.07,0.41,0.33,0.51,0.95,0.47 C134.05,29.15,133.47,29.17,132.85,29.21z M136.65,30.17c0.77,0.02,0.15,0.93,1.17,0.8C137.7,30.62,137.04,29.83,136.65,30.17z M109.03,27.69c-0.2,0.29-0.87,0.31-0.92,0.68C108.94,28.78,110.16,27.88,109.03,27.69z M83.95,28.57c-0.9,0.35-1.5,0.56-2.43,0.28 c-0.47,0.59-0.32,0.98,0.63,1.18c0.11-0.68,1.15-0.48,1.66-0.51C83.59,29.08,84.18,29.03,83.95,28.57z M76.49,29.94 c1.33-0.34,2.84-0.23,4.14-0.35c-0.36-0.9-2.57,0.32-3.49-0.36C77.41,29.7,76.55,29.63,76.49,29.94z M83.1,27.57 c0.04,0.44,1.58,0.41,1.48-0.01C83.66,27.84,83.65,27.11,83.1,27.57z M79.97,30.29c-0.04-0.28,1.25,0.15,1.17-0.45 C80.63,29.84,79.05,30.07,79.97,30.29z M87.2,22.24c-0.8,0.24-0.83-0.13-0.8-0.54c-0.41,0.04-0.82,0.09-1.23,0.13 c-0.11,0.94,1.14-0.24,0.84,0.85C86.62,22.64,87.02,22.5,87.2,22.24z M146.4,28.87c0.07,0.37,0.12,0.74,0.92,0.67 C147.45,29.06,146.74,29.08,146.4,28.87z M97.79,29.82c-0.72,0.19-1.23,0.13-1.43,0.29c0.27,0.01,0.39,0.14,0.51,0.26 c-1.73,0.08-2.35,0.71-3.41,0.02c0.19,1.3-4.86,0.41-6.18,1.58c-0.07-0.39-0.13-0.79-0.81-0.7c1.02,0.55-0.14,0.79-0.13,0.96 c0.94,0,4.15-0.7,2.92,0c1.19-0.44,1.2-0.55,1.22,0.03c0.58-0.57,1.95-0.73,2.62-0.58c-0.29,0.05-0.56,0.1-0.45,0.36 c0.74,0.38,0.53-0.48,1.16-0.58c0.51,0.21,0.31-0.04,0.97-0.09c0.03,0.21-0.08,0.35-0.2,0.49c0.61-0.18,0.97-0.48,1.38-0.76 c0.07,0.34,0.64,0.27,1.23,0.2c0.02-0.59,1.03-0.55,1.15-0.73C98.04,30.33,97.35,30.14,97.79,29.82z M91.22,32.33 c0.3,0,0.17,0.16,0.03,0.31c0.77,0.23,1.23-0.33,1.94-0.04C92.99,32.25,91.38,32.15,91.22,32.33z M88.69,29.15 c-1.32-0.27-0.7-0.18-2.27-0.54c-0.11,0.88-1,1.37,0.67,1.66C86.02,29.45,88.01,29.51,88.69,29.15z M86.85,23.54 c0.33,0.46-0.34,0.42-0.42,0.67c0.19,0.01,0.3,0.1,0.28,0.28c0.71-0.04,1.24-0.17,1.43-0.47c-0.54-0.46-1,0.5-1.23,0.13 C87.59,24.04,87.29,23.63,86.85,23.54z" fill="url(#a)"/></svg>